<?xml version="1.0" encoding="utf-8"?>
<!-- Generator: Adobe Illustrator 21.1.0, SVG Export Plug-In . SVG Version: 6.00 Build 0)  -->
<svg version="1.1" id="Calque_1" xmlns="http://www.w3.org/2000/svg" xmlns:xlink="http://www.w3.org/1999/xlink" x="0px" y="0px"
	 width="800px" height="600px" viewBox="0 0 800 600" enable-background="new 0 0 800 600" xml:space="preserve">
<linearGradient id="SVGID_1_" gradientUnits="userSpaceOnUse" x1="50" y1="650" x2="750" y2="-50">
	<stop  offset="0" style="stop-color:#161742"/>
	<stop  offset="1" style="stop-color:#0B0935"/>
</linearGradient>
<rect fill="url(#SVGID_1_)" width="800" height="600"/>
<g>
	<circle fill="#ECF3FA" cx="622.752" cy="463.3" r="30.955"/>
	<path opacity="0.1" fill="#464363" d="M622.752,494.256c17.096,0,30.955-13.859,30.955-30.955c0-9.111-3.936-17.301-10.201-22.966
		c4.965,5.491,7.989,12.769,7.989,20.755c0,17.096-16.111,32.847-33.207,32.847"/>
	<g>
		<defs>
			<circle id="SVGID_2_" cx="622.752" cy="463.3" r="30.955"/>
		</defs>
		<clipPath id="SVGID_3_">
			<use xlink:href="#SVGID_2_"  overflow="visible"/>
		</clipPath>
	</g>
	<g>
		<circle fill="#464363" cx="615.406" cy="467.944" r="1.946"/>
		<circle opacity="0.3" fill="#E2B2D3" cx="612.698" cy="472.458" r="1.444"/>
		<circle opacity="0.3" fill="#E2B2D3" cx="632.805" cy="472.458" r="1.444"/>
		<circle fill="#464363" cx="630.097" cy="467.944" r="1.946"/>
	</g>
	<g>
		<circle opacity="0.1" fill="#464363" cx="625.659" cy="445.737" r="3.16"/>
		<path opacity="0.1" fill="#464363" d="M623.459,445.737c0-1.581,1.164-2.879,2.68-3.112c-0.158-0.024-0.315-0.048-0.48-0.048
			c-1.745,0-3.16,1.415-3.16,3.16s1.415,3.16,3.16,3.16c0.164,0,0.322-0.024,0.48-0.048
			C624.623,448.616,623.459,447.318,623.459,445.737z"/>
	</g>
	<g opacity="0.7">
		<circle opacity="0.1" fill="#464363" cx="614.148" cy="442.728" r="1.632"/>
		<path opacity="0.1" fill="#464363" d="M613.012,442.728c0-0.816,0.601-1.487,1.384-1.607c-0.081-0.012-0.163-0.025-0.248-0.025
			c-0.901,0-1.632,0.731-1.632,1.632s0.731,1.632,1.632,1.632c0.085,0,0.166-0.012,0.248-0.025
			C613.613,444.214,613.012,443.544,613.012,442.728z"/>
	</g>
	<g opacity="0.4">
		<circle opacity="0.1" fill="#464363" cx="603.013" cy="464.932" r="5.643"/>
		<path opacity="0.1" fill="#464363" d="M599.084,464.932c0-2.823,2.079-5.141,4.786-5.556c-0.281-0.043-0.563-0.086-0.857-0.086
			c-3.116,0-5.643,2.526-5.643,5.643c0,3.116,2.526,5.643,5.643,5.643c0.293,0,0.575-0.043,0.857-0.086
			C601.163,470.073,599.084,467.755,599.084,464.932z"/>
	</g>
	<g opacity="0.4">
		<circle opacity="0.1" fill="#464363" cx="641.64" cy="478.616" r="5.643"/>
		<path opacity="0.1" fill="#464363" d="M637.711,478.616c0-2.823,2.079-5.141,4.786-5.556c-0.281-0.043-0.563-0.086-0.856-0.086
			c-3.116,0-5.643,2.526-5.643,5.643c0,3.116,2.526,5.643,5.643,5.643c0.293,0,0.575-0.043,0.856-0.086
			C639.79,483.757,637.711,481.439,637.711,478.616z"/>
	</g>
	<g opacity="0.8">
		<circle opacity="0.1" fill="#464363" cx="642.497" cy="458.183" r="3.643"/>
		<path opacity="0.1" fill="#464363" d="M639.96,458.183c0-1.822,1.342-3.319,3.09-3.587c-0.182-0.028-0.364-0.056-0.553-0.056
			c-2.012,0-3.643,1.631-3.643,3.643c0,2.012,1.631,3.643,3.643,3.643c0.189,0,0.371-0.028,0.553-0.056
			C641.302,461.501,639.96,460.005,639.96,458.183z"/>
	</g>
	<g>
		<defs>
			<circle id="SVGID_4_" cx="622.752" cy="463.3" r="30.955"/>
		</defs>
		<clipPath id="SVGID_5_">
			<use xlink:href="#SVGID_4_"  overflow="visible"/>
		</clipPath>
		<g opacity="0.6" clip-path="url(#SVGID_5_)">
			<circle opacity="0.1" fill="#464363" cx="604.217" cy="485.777" r="5.643"/>
			<path opacity="0.1" fill="#464363" d="M600.287,485.777c0-2.823,2.079-5.141,4.786-5.556c-0.281-0.043-0.563-0.086-0.856-0.086
				c-3.116,0-5.643,2.526-5.643,5.643c0,3.116,2.526,5.643,5.643,5.643c0.293,0,0.575-0.043,0.856-0.086
				C602.367,490.918,600.287,488.6,600.287,485.777z"/>
		</g>
	</g>
	<path fill="#ECF3FA" d="M593.367,457.841c0,0-0.935-2.283-1.538-2.81c-0.216-0.189-0.404-0.406-0.301-0.675l1.228-3.205
		c0.103-0.268,0.406-0.404,0.675-0.301l2.557,0.013c0.268,0.103,0.404,0.406,0.301,0.675l-2.247,6.001
		C593.939,457.808,593.635,457.943,593.367,457.841z"/>
	<path fill="#ECF3FA" d="M618.113,492.374c0,0-2.244,1.025-2.746,1.649c-0.18,0.224-0.39,0.419-0.662,0.327l-3.251-1.099
		c-0.272-0.092-0.419-0.39-0.327-0.662l-0.089-2.555c0.092-0.272,0.39-0.419,0.662-0.327l6.086,2.006
		C618.058,491.804,618.205,492.102,618.113,492.374z"/>
	<path fill="#ECF3FA" d="M632.995,435.132c0,0,2.433-0.406,3.08-0.877c0.232-0.169,0.486-0.304,0.724-0.144l5.717,3.362
		c0.239,0.16,0.304,0.486,0.144,0.724l-0.579,2.49c-0.16,0.239-0.486,0.304-0.724,0.144l-8.219-4.975
		C632.9,435.697,632.835,435.371,632.995,435.132z"/>
	<path opacity="0.1" fill="#464363" d="M636.799,434.111c0,0,0.845,1.204,2.271,1.996c1.961,1.088,3.446,1.366,3.446,1.366"/>
	<g>
		<circle fill="#464363" cx="622.752" cy="477.204" r="3.522"/>
		<g>
			<defs>
				<circle id="SVGID_6_" cx="622.752" cy="477.204" r="3.522"/>
			</defs>
			<clipPath id="SVGID_7_">
				<use xlink:href="#SVGID_6_"  overflow="visible"/>
			</clipPath>
			<path opacity="0.2" clip-path="url(#SVGID_7_)" d="M624.603,473.296l-1.028,0.295c0.784-0.225,1.603,0.229,1.828,1.013
				l0.042,0.146c0.916,3.196-0.79,6.521-3.844,7.679c0.174-0.034,0.347-0.075,0.52-0.124h0c3.369-0.966,5.317-4.48,4.351-7.85
				l-0.042-0.146C626.206,473.525,625.388,473.071,624.603,473.296z"/>
			<ellipse clip-path="url(#SVGID_7_)" fill="#EF4136" cx="622.752" cy="482.078" rx="4.134" ry="3.241"/>
		</g>
	</g>
	<circle fill="#FFFFFF" cx="614.503" cy="466.975" r="0.32"/>
	<circle fill="#FFFFFF" cx="629.194" cy="466.975" r="0.32"/>
</g>
<g>
	<circle fill="#3EB4E7" cx="615.404" cy="91.01" r="51.203"/>
	<g>
		<defs>
			<circle id="SVGID_8_" cx="615.404" cy="91.01" r="51.203"/>
		</defs>
		<clipPath id="SVGID_9_">
			<use xlink:href="#SVGID_8_"  overflow="visible"/>
		</clipPath>
	</g>
	<g>
		<g>
			<circle fill="#464363" cx="598.774" cy="98.691" r="3.218"/>
			<circle fill="#464363" cx="632.034" cy="98.691" r="3.218"/>
		</g>
	</g>
	<circle fill="#FFFFFF" cx="596.968" cy="97.844" r="0.594"/>
	<circle fill="#FFFFFF" cx="630.228" cy="97.844" r="0.594"/>
	<g>
		<defs>
			<circle id="SVGID_10_" cx="616.507" cy="91.962" r="51.203"/>
		</defs>
		<clipPath id="SVGID_11_">
			<use xlink:href="#SVGID_10_"  overflow="visible"/>
		</clipPath>
		<path opacity="0.2" clip-path="url(#SVGID_11_)" d="M609.125,41.291c0,0,4.239,12.461,1.53,16.69s-6.508,10.277-12.583,11.015
			c-6.075,0.738-8.483-3.428-12.696,0.762c-4.213,4.19-5.718,9.971-4.514,13.25c1.204,3.279,5.417,10.586,5.417,10.586
			s0.602,7.785-0.301,9.267c-0.903,1.482-0.299,3.799-8.427,6.527c-8.128,2.728-24.076-3.522-24.076-3.522l-9.931-47.885
			l42.433-27.972L609.125,41.291z"/>
		<path opacity="0.2" clip-path="url(#SVGID_11_)" d="M700.834,88.876c0,0-11.357,6.653-16.044,4.848
			c-4.687-1.805-11.374-4.313-13.316-10.117s1.656-8.998-3.294-12.285s-10.916-3.601-13.886-1.764s-9.284,7.431-9.284,7.431
			s-7.506,2.152-9.139,1.565c-1.633-0.587-3.782,0.47-8.085-6.945c-4.304-7.415-5.016-45.814-5.016-45.814l48.553,2.183
			l35.918,35.957L700.834,88.876z"/>
		<path opacity="0.2" clip-path="url(#SVGID_11_)" d="M608.05,95.624c-1.141-1.393-1.834-5.167-1.383-7.07
			c0.451-1.902,1.076-4.62,2.604-5.153c1.528-0.533,2.397,1.159,3.24-0.78c0.842-1.94,0.89-4.461,0.384-5.818
			c-0.505-1.356-2.028-4.325-2.028-4.325s-0.616-3.302-0.47-3.967c0.146-0.665-0.147-1.632,1.794-3.088
			c1.941-1.456,6.437,0.64,6.437,0.64s6.289,14.961,5.402,20.085c-0.699,4.034-5.273,12.87-9.324,13.462
			C612.787,99.89,609.279,97.124,608.05,95.624z"/>
	</g>
	<g>
		<defs>
			<circle id="SVGID_12_" cx="615.404" cy="91.01" r="51.203"/>
		</defs>
		<clipPath id="SVGID_13_">
			<use xlink:href="#SVGID_12_"  overflow="visible"/>
		</clipPath>
		<path clip-path="url(#SVGID_13_)" fill="#AAD04C" d="M608.021,40.339c0,0,4.239,12.461,1.53,16.69s-6.508,10.277-12.583,11.015
			c-6.075,0.738-8.483-3.428-12.696,0.762c-4.213,4.19-5.718,9.971-4.514,13.25c1.204,3.279,5.417,10.586,5.417,10.586
			s0.602,7.785-0.301,9.267s-0.299,3.799-8.427,6.527c-8.128,2.728-24.076-3.522-24.076-3.522L542.44,57.03l42.433-27.972
			L608.021,40.339z"/>
		<path clip-path="url(#SVGID_13_)" fill="#AAD04C" d="M699.73,87.924c0,0-11.357,6.653-16.044,4.848
			c-4.687-1.805-11.374-4.313-13.316-10.117s1.656-8.998-3.294-12.285s-10.916-3.601-13.886-1.764
			c-2.971,1.837-9.284,7.431-9.284,7.431s-7.506,2.152-9.139,1.565s-3.782,0.47-8.085-6.945c-4.304-7.415-5.016-45.814-5.016-45.814
			l48.553,2.183l35.918,35.957L699.73,87.924z"/>
		<path clip-path="url(#SVGID_13_)" fill="#AAD04C" d="M606.946,94.672c-1.141-1.393-1.834-5.167-1.383-7.07
			c0.451-1.902,1.076-4.62,2.604-5.153c1.528-0.533,2.398,1.159,3.24-0.78c0.842-1.94,0.89-4.461,0.384-5.818
			c-0.505-1.356-2.028-4.325-2.028-4.325s-0.616-3.302-0.47-3.967c0.146-0.665-0.147-1.632,1.794-3.088
			c1.941-1.456,6.437,0.64,6.437,0.64s6.289,14.961,5.402,20.085c-0.699,4.034-5.273,12.87-9.324,13.462
			C611.683,98.938,608.175,96.172,606.946,94.672z"/>
		<path clip-path="url(#SVGID_13_)" fill="#AAD04C" d="M655.135,120.376c1.977,1.545,4.03,7.174,1.95,9.844
			c-2.08,2.67-4.993,6.484-10.014,7.268c-5.021,0.784-7.192-1.559-10.524,1.173c-3.333,2.732-4.349,6.257-3.215,8.14
			s4.933,5.992,4.933,5.992s0.816,4.598,0.126,5.531c-0.69,0.933-0.094,2.278-6.741,4.362s-38.324,0.057-38.324,0.057l7.965-28.716
			c0,0,24.531-17.272,34.143-19.051C640.454,114.047,651.11,117.232,655.135,120.376z"/>
	</g>
	<path opacity="0.2" d="M615.404,142.213c28.279,0,51.203-22.924,51.203-51.203c0-15.07-6.511-28.618-16.873-37.988
		c8.213,9.082,13.215,21.122,13.215,34.33c0,28.279-26.65,54.331-54.928,54.331"/>
	<path fill="#3EB4E7" d="M598.286,49.618c0,0-3.522-1.072-7.513,1.693c-3.991,2.765-2.809,4.967-1.404,5.7
		c1.404,0.733,4.582,0.225,5.802,0.62c1.22,0.395,1.868,0.171,3.724-0.62c1.856-0.791-0.657-2.058,0.895-3.569
		c1.552-1.511,3.03-2.057,1.552-3.053S598.286,49.618,598.286,49.618z"/>
	<path opacity="0.2" d="M591.331,51.838c3.991-2.765,7.513-1.693,7.513-1.693s1.578-0.226,3.056,0.771
		c0.007,0.005,0.012,0.009,0.019,0.014c-0.085-0.17-0.258-0.347-0.546-0.541c-1.478-0.996-3.056-0.771-3.056-0.771
		s-3.522-1.072-7.513,1.693c-3.628,2.514-2.979,4.558-1.776,5.46C588.255,55.719,588.293,53.942,591.331,51.838z"/>
	<g>
		<path fill="#464363" d="M616.507,117.806L616.507,117.806c5.903,0,10.688,4.785,10.688,10.688v0.255
			c0,1.374-1.114,2.488-2.488,2.488h-16.398c-1.374,0-2.488-1.114-2.488-2.488v-0.255
			C605.82,122.591,610.605,117.806,616.507,117.806z"/>
		<path opacity="0.2" d="M616.507,117.806c-0.327,0-0.65,0.02-0.97,0.049c5.447,0.491,9.718,5.064,9.718,10.639v0.255
			c0,1.374-1.114,2.488-2.488,2.488h1.94c1.374,0,2.488-1.114,2.488-2.488v-0.255C627.195,122.591,622.41,117.806,616.507,117.806z"
			/>
		<g>
			<defs>
				<path id="SVGID_14_" d="M616.507,117.806L616.507,117.806c5.903,0,10.688,4.785,10.688,10.688v0.255
					c0,1.374-1.114,2.488-2.488,2.488h-16.398c-1.374,0-2.488-1.114-2.488-2.488v-0.255
					C605.82,122.591,610.605,117.806,616.507,117.806z"/>
			</defs>
			<clipPath id="SVGID_15_">
				<use xlink:href="#SVGID_14_"  overflow="visible"/>
			</clipPath>
			<ellipse clip-path="url(#SVGID_15_)" fill="#EF4136" cx="616.507" cy="133.045" rx="7.16" ry="4.646"/>
		</g>
	</g>
</g>
<g>
	<g>
		<circle fill="#B68862" cx="175.82" cy="91.486" r="31.493"/>
		<g>
			<circle opacity="0.1" fill="#464363" cx="173.404" cy="80.048" r="3.215"/>
			<path opacity="0.1" fill="#464363" d="M171.165,80.048c0-1.608,1.185-2.929,2.727-3.166c-0.16-0.025-0.321-0.049-0.488-0.049
				c-1.775,0-3.215,1.439-3.215,3.215c0,1.775,1.439,3.215,3.215,3.215c0.167,0,0.328-0.025,0.488-0.049
				C172.35,82.977,171.165,81.656,171.165,80.048z"/>
		</g>
		<g>
			<circle opacity="0.1" fill="#464363" cx="175.82" cy="70.556" r="1.66"/>
			<path opacity="0.1" fill="#464363" d="M174.663,70.556c0-0.831,0.612-1.512,1.408-1.635c-0.083-0.013-0.166-0.025-0.252-0.025
				c-0.917,0-1.66,0.743-1.66,1.66c0,0.917,0.743,1.66,1.66,1.66c0.086,0,0.169-0.013,0.252-0.025
				C175.275,72.069,174.663,71.387,174.663,70.556z"/>
		</g>
		<g>
			<circle opacity="0.1" fill="#464363" cx="155.738" cy="93.146" r="5.741"/>
			<path opacity="0.1" fill="#464363" d="M151.74,93.146c0-2.872,2.116-5.23,4.869-5.653c-0.286-0.044-0.573-0.088-0.871-0.088
				c-3.171,0-5.741,2.57-5.741,5.741s2.57,5.741,5.741,5.741c0.298,0,0.585-0.044,0.871-0.088
				C153.856,98.377,151.74,96.019,151.74,93.146z"/>
		</g>
		<g>
			<circle opacity="0.1" fill="#464363" cx="193.002" cy="92.175" r="3.706"/>
			<path opacity="0.1" fill="#464363" d="M190.421,92.175c0-1.854,1.366-3.377,3.143-3.649c-0.185-0.028-0.37-0.057-0.562-0.057
				c-2.047,0-3.706,1.659-3.706,3.706s1.659,3.706,3.706,3.706c0.193,0,0.378-0.028,0.562-0.057
				C191.786,95.551,190.421,94.029,190.421,92.175z"/>
		</g>
		<g>
			<defs>
				<circle id="SVGID_16_" cx="175.82" cy="91.486" r="31.493"/>
			</defs>
			<clipPath id="SVGID_17_">
				<use xlink:href="#SVGID_16_"  overflow="visible"/>
			</clipPath>
			<g opacity="0.6" clip-path="url(#SVGID_17_)">
				<circle opacity="0.1" fill="#464363" cx="156.963" cy="114.353" r="5.741"/>
				<path opacity="0.1" fill="#464363" d="M152.965,114.353c0-2.872,2.116-5.23,4.869-5.653c-0.286-0.044-0.573-0.088-0.871-0.088
					c-3.171,0-5.741,2.57-5.741,5.741s2.57,5.741,5.741,5.741c0.298,0,0.585-0.044,0.871-0.088
					C155.081,119.584,152.965,117.225,152.965,114.353z"/>
			</g>
			<g clip-path="url(#SVGID_17_)">
				<circle opacity="0.1" fill="#464363" cx="196.708" cy="111.595" r="5.741"/>
				<path opacity="0.1" fill="#464363" d="M192.71,111.595c0-2.872,2.116-5.23,4.869-5.653c-0.286-0.044-0.573-0.088-0.871-0.088
					c-3.171,0-5.741,2.57-5.741,5.741s2.57,5.741,5.741,5.741c0.298,0,0.585-0.044,0.871-0.088
					C194.825,116.825,192.71,114.467,192.71,111.595z"/>
			</g>
		</g>
	</g>
	<path fill="none" stroke="#2B2842" stroke-width="1.4151" stroke-linecap="round" stroke-miterlimit="10" d="M178.861,109.315
		c0,0-0.835,0.457-3.041,0.457c-2.378,0-3.041-0.457-3.041-0.457"/>
	<g>
		<g>
			<circle fill="#2B2842" cx="168.094" cy="99.466" r="2.095"/>
			<circle fill="#2B2842" cx="183.545" cy="99.466" r="2.095"/>
		</g>
	</g>
	<circle fill="#FFFFFF" cx="167.564" cy="99.184" r="0.475"/>
	<circle fill="#FFFFFF" cx="183.07" cy="99.184" r="0.475"/>
	<g>
		<path opacity="0.2" d="M176.072,122.979c17.393,0,31.493-14.1,31.493-31.493c0-9.269-4.005-17.602-10.378-23.365
			c5.051,5.586,8.168,12.991,8.128,21.115c-0.085,17.438-16.588,33.523-33.784,33.417"/>
	</g>
</g>
<g>
	<g>
		<circle fill="#F9C853" cx="615.404" cy="269.045" r="48.548"/>
		<g>
			<defs>
				<circle id="SVGID_18_" cx="615.404" cy="269.045" r="48.548"/>
			</defs>
			<clipPath id="SVGID_19_">
				<use xlink:href="#SVGID_18_"  overflow="visible"/>
			</clipPath>
			<path opacity="0.2" clip-path="url(#SVGID_19_)" fill="#464363" d="M564.616,294.154c0,0,69.519,7.223,102.924,0
				c33.405-7.223-3.588,16.552-3.588,16.552s-42.49-3.009-97.095,8.727C512.251,331.17,564.616,294.154,564.616,294.154z"/>
			<path opacity="0.4" clip-path="url(#SVGID_19_)" fill="#ECF3FA" d="M565.73,234.629c0,0,68.697,11.787,102.435,10.019
				c33.737-1.767-4.696,11.153-4.696,11.153s-42.084-6.228-97.227-3.387C511.098,255.254,565.73,234.629,565.73,234.629z"/>
		</g>
		<path opacity="0.1" d="M615.404,317.592c26.812,0,48.548-21.736,48.548-48.548c0-14.288-6.174-27.134-15.998-36.018
			c7.787,8.611,12.591,20.026,12.53,32.55c-0.131,26.882-25.571,51.676-52.08,51.514"/>
		<path fill="#ECF3FA" d="M663.702,272.951c4.228,1.151,6.63,2.47,6.63,3.872c0,4.486-24.592,8.123-54.928,8.123
			s-54.928-3.637-54.928-8.123c0-1.39,2.36-2.698,6.521-3.842l-0.141-5.501c-18.927,2.154-31.124,5.538-31.124,9.343
			c0,6.507,35.67,11.782,79.672,11.782s79.672-5.275,79.672-11.782c0-3.805-12.197-7.189-31.125-9.343"/>
	</g>
	<g>
		<path fill="#514E72" d="M616.34,309.686L616.34,309.686c-7.554,0-13.679-6.124-13.679-13.678v-0.326
			c0-1.759,1.426-3.185,3.185-3.185h20.987c1.759,0,3.185,1.426,3.185,3.185v0.326C630.018,303.562,623.894,309.686,616.34,309.686z
			"/>
		<path opacity="0.2" d="M626.834,292.497h-2.304c1.759,0,3.185,1.426,3.185,3.185v0.326c0,7.166-5.512,13.041-12.526,13.627
			c0.38,0.032,0.764,0.052,1.152,0.052h0c7.554,0,13.678-6.124,13.678-13.678v-0.326
			C630.018,293.923,628.593,292.497,626.834,292.497z"/>
		<g>
			<defs>
				<path id="SVGID_20_" d="M616.34,309.686L616.34,309.686c-7.554,0-13.679-6.124-13.679-13.678v-0.326
					c0-1.759,1.426-3.185,3.185-3.185h20.987c1.759,0,3.185,1.426,3.185,3.185v0.326
					C630.018,303.562,623.894,309.686,616.34,309.686z"/>
			</defs>
			<clipPath id="SVGID_21_">
				<use xlink:href="#SVGID_20_"  overflow="visible"/>
			</clipPath>
			<ellipse clip-path="url(#SVGID_21_)" fill="#EF4136" cx="616.34" cy="309.686" rx="8.911" ry="6.986"/>
		</g>
	</g>
	<path fill="none" stroke="#464363" stroke-width="1.8057" stroke-linecap="round" stroke-miterlimit="10" d="M595.829,274.647
		c0,0,1.065-1.486,3.881-1.486c3.034,0,3.881,1.486,3.881,1.486"/>
	<path fill="none" stroke="#464363" stroke-width="1.8057" stroke-linecap="round" stroke-miterlimit="10" d="M629.089,274.938
		c0,0,1.065-1.486,3.881-1.486c3.034,0,3.881,1.486,3.881,1.486"/>
</g>
<g>
	<g>
		<circle fill="#447CBF" cx="174.16" cy="463.359" r="48.548"/>
		<g>
			<defs>
				<circle id="SVGID_22_" cx="174.16" cy="463.359" r="48.548"/>
			</defs>
			<clipPath id="SVGID_23_">
				<use xlink:href="#SVGID_22_"  overflow="visible"/>
			</clipPath>
			<path opacity="0.07" clip-path="url(#SVGID_23_)" d="M123.372,437.768c0,0,69.519,4.883,102.924,0
				c33.405-4.883-3.588,11.19-3.588,11.19s-42.49-2.035-97.095,5.9S123.372,437.768,123.372,437.768z"/>
			<path opacity="0.07" clip-path="url(#SVGID_23_)" d="M119.04,477.58c0,0,68.308,13.81,102.064,13.277s-5.001,10.634-5.001,10.634
				s-41.873-7.499-97.045-6.674S119.04,477.58,119.04,477.58z"/>
			<path opacity="0.1" clip-path="url(#SVGID_23_)" fill="#FFFFFF" d="M125.282,403.668c0,0,68.259,16.269,102.435,10.019
				c34.176-6.25-5.701,21.426-5.701,21.426s-41.901-8.095-97.757,2.029S125.282,403.668,125.282,403.668z"/>
			<path opacity="0.1" clip-path="url(#SVGID_23_)" fill="#FFFFFF" d="M215.971,487.259c0,0-68.259-16.269-102.435-10.019
				s5.701-21.426,5.701-21.426s41.901,8.095,97.757-2.029C272.85,443.661,215.971,487.259,215.971,487.259z"/>
			<path opacity="0.1" clip-path="url(#SVGID_23_)" fill="#FFFFFF" d="M213.387,534.777c0,0-66.531-22.307-101.129-19.138
				s7.593-20.83,7.593-20.83s41.01,11.809,97.547,6.719C273.936,496.439,213.387,534.777,213.387,534.777z"/>
		</g>
		<path opacity="0.2" d="M174.127,511.907c26.726,0,48.392-21.666,48.392-48.392c0-14.242-6.154-27.047-15.946-35.902
			c7.762,8.583,12.49,19.962,12.49,32.446c0,26.726-25.187,51.349-51.913,51.349"/>
	</g>
	<path fill="none" stroke="#2B2842" stroke-width="1.8057" stroke-linecap="round" stroke-miterlimit="10" d="M160.996,468.651
		c0,0-1.065,1.486-3.881,1.486c-3.034,0-3.881-1.486-3.881-1.486"/>
	<path fill="none" stroke="#2B2842" stroke-width="2.7085" stroke-linecap="round" stroke-miterlimit="10" d="M184.048,490.495
		c0,0-2.715,1.98-9.888,1.98c-7.731,0-9.888-1.98-9.888-1.98"/>
	<path fill="none" stroke="#2B2842" stroke-width="1.8057" stroke-linecap="round" stroke-miterlimit="10" d="M194.256,468.943
		c0,0-1.065,1.486-3.881,1.486c-3.034,0-3.881-1.486-3.881-1.486"/>
</g>
<g>
	<g>
		<ellipse fill="#E26240" cx="173.508" cy="279.074" rx="51.203" ry="48.911"/>
		<path opacity="0.2" d="M173.508,327.986c28.279,0,51.203-21.898,51.203-48.911c0-14.395-6.511-27.337-16.873-36.287
			c8.213,8.675,13.215,20.176,13.215,32.794c0,27.013-26.65,51.9-54.928,51.9"/>
		<g>
			<defs>
				<ellipse id="SVGID_24_" cx="173.508" cy="279.074" rx="51.203" ry="48.911"/>
			</defs>
			<clipPath id="SVGID_25_">
				<use xlink:href="#SVGID_24_"  overflow="visible"/>
			</clipPath>
		</g>
		<g opacity="0.5">
			<text transform="matrix(1 0 0 1 189.9585 230.6291)" fill="#ECF3FA" font-family="'VarianeScript'" font-size="7.5883px">Z</text>
		</g>
		<g opacity="0.4">
			<text transform="matrix(1 0 0 1 194.3545 225.1809)" fill="#ECF3FA" font-family="'VarianeScript'" font-size="11.1628px">Z</text>
		</g>
		<g opacity="0.3">
			<text transform="matrix(1 0 0 1 199.6489 221.9563)" fill="#ECF3FA" font-family="'VarianeScript'" font-size="13.863px">Z</text>
		</g>
		<path fill="none" stroke="#2B2842" stroke-width="1.8057" stroke-linecap="round" stroke-miterlimit="10" d="M152.298,284.463
			c0,0,1.065-0.583,3.881-0.583c3.034,0,3.881,0.583,3.881,0.583"/>
		<path fill="none" stroke="#2B2842" stroke-width="2.7085" stroke-linecap="round" stroke-miterlimit="10" d="M180.517,304.904
			c0,0-1.924,1.053-7.008,1.053c-5.48,0-7.008-1.053-7.008-1.053"/>
		<path fill="none" stroke="#2B2842" stroke-width="1.8057" stroke-linecap="round" stroke-miterlimit="10" d="M186.957,284.463
			c0,0,1.065-0.583,3.881-0.583c3.034,0,3.881,0.583,3.881,0.583"/>
		<g opacity="0.8">
			<circle opacity="0.1" fill="#464363" cx="157.958" cy="245.813" r="3.77"/>
			<path opacity="0.1" fill="#464363" d="M155.332,245.813c0-1.886,1.389-3.435,3.197-3.712c-0.188-0.029-0.376-0.058-0.572-0.058
				c-2.082,0-3.77,1.688-3.77,3.77c0,2.082,1.688,3.77,3.77,3.77c0.196,0,0.384-0.029,0.572-0.058
				C156.722,249.247,155.332,247.699,155.332,245.813z"/>
		</g>
		<g opacity="0.8">
			<circle opacity="0.1" fill="#464363" cx="214.496" cy="273.125" r="3.643"/>
			<path opacity="0.1" fill="#464363" d="M211.96,273.125c0-1.822,1.342-3.319,3.09-3.587c-0.182-0.028-0.364-0.056-0.553-0.056
				c-2.012,0-3.643,1.631-3.643,3.643c0,2.012,1.631,3.643,3.643,3.643c0.189,0,0.371-0.028,0.553-0.056
				C213.302,276.444,211.96,274.948,211.96,273.125z"/>
		</g>
		<g opacity="0.8">
			<circle opacity="0.1" fill="#464363" cx="150.545" cy="303.311" r="3.643"/>
			<path opacity="0.1" fill="#464363" d="M148.009,303.311c0-1.822,1.342-3.319,3.09-3.587c-0.182-0.028-0.364-0.056-0.553-0.056
				c-2.012,0-3.643,1.631-3.643,3.643c0,2.012,1.631,3.643,3.643,3.643c0.189,0,0.371-0.028,0.553-0.056
				C149.351,306.63,148.009,305.133,148.009,303.311z"/>
		</g>
		<path opacity="0.1" fill="#464363" d="M183.988,247.054l-5.868,5.417l-0.731,6.546l5.019,7.448l7.448-2.094l2.821,4.464
			c0,0,4.22-3.967,4.762-4.749c0.542-0.781,1.784-8.681,1.784-9.02s-1.536-6.771-1.784-6.771c-0.248,0-7.696,0.912-8.035,0.964
			c-0.339,0.052-3.611,0.513-3.611,0s-0.339-2.205-0.339-2.205H183.988z"/>
		<g>
			<path opacity="0.1" fill="#464363" d="M191.286,249.259c0.238-0.036,3.973-0.496,6.268-0.767
				c-0.048-0.117-0.089-0.197-0.114-0.197c-0.248,0-7.696,0.912-8.035,0.964c-0.14,0.021-0.786,0.113-1.492,0.176
				C188.665,249.631,191.002,249.303,191.286,249.259z"/>
			<path opacity="0.1" fill="#464363" d="M179.27,259.017l0.731-6.546l5.517-5.093c-0.037-0.193-0.063-0.324-0.063-0.324h-1.467
				l-5.868,5.417l-0.731,6.546l5.019,7.448l1.581-0.445L179.27,259.017z"/>
			<path opacity="0.1" fill="#464363" d="M191.737,264.371l-1.597,0.449l2.538,4.015c0,0,0.501-0.471,1.175-1.116L191.737,264.371z"
				/>
		</g>
		<path opacity="0.1" fill="#464363" d="M186.804,309.576l-4.141,1.6l-0.516,1.933l3.542,2.2l5.256-0.619l1.991,1.318
			c0,0,2.977-1.172,3.36-1.402s1.259-2.564,1.259-2.664c0-0.1-1.084-2-1.259-2c-0.175,0-5.43,0.269-5.669,0.285
			s-2.548,0.151-2.548,0s-0.239-0.651-0.239-0.651H186.804z"/>
		<g>
			<path opacity="0.1" fill="#464363" d="M191.953,310.227c0.168-0.011,2.803-0.146,4.422-0.227
				c-0.034-0.035-0.063-0.058-0.08-0.058c-0.175,0-5.43,0.269-5.669,0.285c-0.099,0.006-0.554,0.033-1.053,0.052
				C190.104,310.337,191.753,310.24,191.953,310.227z"/>
			<path opacity="0.1" fill="#464363" d="M183.474,313.109l0.516-1.933l3.893-1.504c-0.026-0.057-0.044-0.096-0.044-0.096h-1.035
				l-4.141,1.6l-0.516,1.933l3.542,2.2l1.116-0.131L183.474,313.109z"/>
			<path opacity="0.1" fill="#464363" d="M192.271,314.69l-1.127,0.133l1.791,1.186c0,0,0.354-0.139,0.829-0.33L192.271,314.69z"/>
		</g>
	</g>
	<path opacity="0.1" fill="#464363" d="M128.698,268.601l-3.922,5.018l-0.488,6.063l3.355,6.9l4.978-1.94l1.886,4.135
		c0,0,2.82-3.675,3.183-4.399c0.362-0.724,1.192-8.041,1.192-8.355c0-0.314-1.027-6.272-1.192-6.272
		c-0.166,0-5.144,0.845-5.37,0.893c-0.226,0.048-2.414,0.475-2.414,0c0-0.475-0.226-2.043-0.226-2.043H128.698z"/>
	<g>
		<path opacity="0.1" fill="#464363" d="M133.576,270.644c0.159-0.034,2.656-0.459,4.189-0.711
			c-0.032-0.109-0.059-0.182-0.076-0.182c-0.166,0-5.144,0.845-5.37,0.893c-0.094,0.02-0.525,0.104-0.997,0.163
			C131.824,270.988,133.386,270.684,133.576,270.644z"/>
		<path opacity="0.1" fill="#464363" d="M125.544,279.682l0.488-6.063l3.688-4.717c-0.024-0.179-0.042-0.3-0.042-0.3h-0.981
			l-3.922,5.018l-0.488,6.063l3.355,6.9l1.057-0.412L125.544,279.682z"/>
		<path opacity="0.1" fill="#464363" d="M133.877,284.641l-1.068,0.416l1.696,3.719c0,0,0.335-0.437,0.786-1.034L133.877,284.641z"
			/>
	</g>
</g>
<g>
	<g>
		<circle fill="#E2C1A3" cx="395.951" cy="91.486" r="48.548"/>
		<g>
			<defs>
				<circle id="SVGID_26_" cx="395.951" cy="91.486" r="48.548"/>
			</defs>
			<clipPath id="SVGID_27_">
				<use xlink:href="#SVGID_26_"  overflow="visible"/>
			</clipPath>
			<path opacity="0.4" clip-path="url(#SVGID_27_)" fill="#ECF3FA" d="M343.209,70.009c0,0,39.5-15.353,62.474-29.726
				c22.974-14.372,21.152,2.911,21.152,2.911s-70.905,41.773-86.972,39.171C323.796,79.764,343.209,70.009,343.209,70.009z"/>
			<path opacity="0.7" clip-path="url(#SVGID_27_)" fill="#CCAF94" d="M354.237,113.121c0,0,22.074,21.207,88.884-26.643
				c15.928-11.408,12.425,1.093,12.425,1.093s-80.018,52.272-103.627,31.19C341.69,109.626,354.237,113.121,354.237,113.121z"/>
			<path opacity="0.4" clip-path="url(#SVGID_27_)" fill="#CCAF94" d="M433.478,146.049c0,0-13.505-27.47-92.639-5.312
				c-18.866,5.283-11.305-5.27-11.305-5.27s93.058-21.803,108.048,6.073C444.077,153.618,433.478,146.049,433.478,146.049z"/>
			<path opacity="0.2" clip-path="url(#SVGID_27_)" fill="#ECF3FA" d="M344.156,87.014c0,0,66.509-7.524,95.099-24.076
				c28.59-16.552,6.621,5.116,6.621,5.116s-41.23,11.737-102.021,24.678S344.156,87.014,344.156,87.014z"/>
		</g>
		<g>
			<g>
				<g>
					<circle fill="#464363" cx="380.183" cy="98.769" r="3.052"/>
					<circle fill="#464363" cx="411.718" cy="98.769" r="3.052"/>
				</g>
			</g>
			<path opacity="0.1" d="M395.951,140.034c26.812,0,48.548-21.736,48.548-48.548c0-14.288-6.173-27.134-15.998-36.018
				c7.787,8.611,12.591,20.026,12.53,32.55c-0.131,26.882-25.571,51.676-52.08,51.514"/>
		</g>
		<circle fill="#FFFFFF" cx="381.663" cy="100.243" r="0.594"/>
		<circle fill="#FFFFFF" cx="410.195" cy="100.243" r="0.594"/>
		<path opacity="0.2" fill="#FFFFFF" d="M417.635,97.131l-4.407-4.407c-0.297-0.297-0.297-0.784,0-1.082l0.52-0.52
			c0.297-0.297,0.784-0.297,1.082,0l4.407,4.407c0.297,0.297,0.297,0.784,0,1.082l-0.52,0.52
			C418.419,97.428,417.932,97.428,417.635,97.131z"/>
		<path opacity="0.2" fill="#FFFFFF" d="M378.673,92.724l-4.407,4.407c-0.297,0.297-0.784,0.297-1.082,0l-0.52-0.52
			c-0.297-0.297-0.297-0.784,0-1.082l4.407-4.407c0.297-0.297,0.784-0.297,1.082,0l0.52,0.52
			C378.97,91.94,378.97,92.427,378.673,92.724z"/>
	</g>
	
		<path fill="none" stroke="#464363" stroke-width="1.8057" stroke-linecap="round" stroke-linejoin="round" stroke-miterlimit="10" d="
		M394.447,117.206c1.396-2.039,3.247-3.764,5.379-5.014c0.898-0.526,1.913-0.981,2.945-0.845c1.032,0.136,2.013,1.082,1.833,2.107
		c-0.252,1.437-2.38,1.941-2.608,3.382c-0.231,1.457,1.646,2.447,1.844,3.909c0.182,1.344-1.184,2.463-2.528,2.646
		c-1.344,0.183-2.684-0.258-4.026-0.453s-2.893-0.062-3.77,0.973"/>
</g>
<g>
	<g>
		<circle fill="#F2D3BD" cx="395.951" cy="269.045" r="64.551"/>
		<g>
			<defs>
				<circle id="SVGID_28_" cx="395.951" cy="269.045" r="64.551"/>
			</defs>
			<clipPath id="SVGID_29_">
				<use xlink:href="#SVGID_28_"  overflow="visible"/>
			</clipPath>
		</g>
		<g>
			<defs>
				<circle id="SVGID_30_" cx="395.951" cy="269.045" r="64.551"/>
			</defs>
			<clipPath id="SVGID_31_">
				<use xlink:href="#SVGID_30_"  overflow="visible"/>
			</clipPath>
			<g opacity="0.5" clip-path="url(#SVGID_31_)">
				<g>
					<g>
						<g>
							<g>
								<path fill="#DDC0A2" d="M542.605,213.509c0.273,0.277,0.6-2.317,0.725-2.772
									C542.71,211.222,542.504,214.181,542.605,213.509z"/>
								<polygon fill="#DDC0A2" points="536.492,218.518 536.757,217.482 535.578,219.936 								"/>
								<path fill="#DDC0A2" d="M531.714,217.687c-0.254,4.469,1.848-0.426,2.448,1.277l-0.023,1.024l0.961-3.471
									C533.97,216.906,532.246,219.033,531.714,217.687z"/>
								<path fill="#DDC0A2" d="M530.662,207.759c-0.111,1.738-0.789,1.383,0.516,0.634c-0.029-0.196-0.028-0.307-0.04-0.451
									C531.029,207.95,530.886,207.923,530.662,207.759z"/>
								<path fill="#DDC0A2" d="M531.137,207.942C531.666,207.902,531.032,206.45,531.137,207.942L531.137,207.942z"/>
								<path fill="#DDC0A2" d="M528.633,208.554l0.91-1.427c0.018-1.032-0.545-1.351-0.208-2.051
									C528.514,205.808,528.501,206.835,528.633,208.554z"/>
								<path fill="#DDC0A2" d="M527.498,211.669l0.447-0.595C527.951,210.641,527.882,210.48,527.498,211.669z"/>
								<path fill="#DDC0A2" d="M528.894,209.82l-0.949,1.254c-0.014,0.725-0.226,2.152,0.414-0.442
									C528.097,211.925,528.437,210.696,528.894,209.82z"/>
								<path fill="#DDC0A2" d="M529.206,210.553c0.226,1.012,0.614,1.692-0.295,3.109
									C530.281,213.263,530.584,210.137,529.206,210.553z"/>
								<path fill="#DDC0A2" d="M530.742,222.193l0.289,1.368l0.666-1.403C531.365,222.853,530.932,220.811,530.742,222.193z"/>
								<path fill="#DDC0A2" d="M524.801,205.646c-0.184,0.93-0.154,2.53-0.286,3.735l0.659-1
									C525.017,207.701,524.624,207.038,524.801,205.646z"/>
								<path fill="#DDC0A2" d="M524.515,209.38l-0.984,1.496C524.162,211.166,524.4,210.419,524.515,209.38z"/>
								<polygon fill="#DDC0A2" points="526.621,216.534 528.357,213.341 526.381,216.544 								"/>
								<polygon fill="#DDC0A2" points="521.982,205.101 522.727,202.996 521.487,206.159 								"/>
								<path fill="#DDC0A2" d="M520.043,205.197c0.577-1.748,0.02-3.104,0.513-4.16c-0.56,0.242-1.225,1.721-1.82,3.048
									C519.267,203.374,519.684,203.64,520.043,205.197z"/>
								<path fill="#DDC0A2" d="M517.782,206.007c0.271-0.399,0.599-1.138,0.954-1.922
									C518.453,204.467,518.148,205.031,517.782,206.007z"/>
								<path fill="#DDC0A2" d="M522.342,210.223c0.028-0.575,0.14-2.073-0.182-2.762l-0.104,2.678
									C522.143,210.165,522.242,210.194,522.342,210.223z"/>
								<path fill="#DDC0A2" d="M522.054,210.226l0.002-0.086c-0.307-0.105-0.517-0.198-0.606-0.242
									C521.527,209.934,521.71,210.029,522.054,210.226z"/>
								<path fill="#DDC0A2" d="M522.413,210.246c-0.026-0.01-0.045-0.019-0.072-0.023
									C522.331,210.486,522.335,210.576,522.413,210.246z"/>
								<path fill="#DDC0A2" d="M525.058,213.86c-0.66,1.406-1.8,2.851-1.273,5.228C524.371,217.331,524.067,215.977,525.058,213.86
									z"/>
								<path fill="#DDC0A2" d="M522.278,213.594l0.692,0.72c0.09-0.698,0.102-1.734,0.428-2.433L522.278,213.594z"/>
								<polygon fill="#DDC0A2" points="521.769,214.373 522.278,213.594 522.021,213.328 								"/>
								<path fill="#DDC0A2" d="M518.77,208.678c-0.508,1.096-0.893,1.137-1.339,1.257c0.374,0.586,0.797,0.936,1.238,0.997
									C518.853,210.113,519.265,208.657,518.77,208.678z"/>
								<path fill="#DDC0A2" d="M520.332,209.662c-0.032,0.056-0.067,0.082-0.098,0.139
									C520.248,210.031,520.274,210.108,520.332,209.662z"/>
								<path fill="#DDC0A2" d="M513.303,209.33c0,0.157-0.001,0.325-0.002,0.489c0.027-0.154,0.053-0.298,0.08-0.453
									L513.303,209.33z"/>
								<path fill="#DDC0A2" d="M518.672,211.435c0.262,0.56,0.559-0.055,0.871-0.839c-0.292,0.227-0.584,0.358-0.874,0.337
									C518.586,211.301,518.545,211.547,518.672,211.435z"/>
								<path fill="#DDC0A2" d="M516.449,207.066c0.097,0.578,0.229,1.075,0.376,1.538
									C516.774,207.743,516.61,206.388,516.449,207.066z"/>
								<path fill="#DDC0A2" d="M520.229,209.055c0.023-0.039,0.046-0.085,0.068-0.11
									C520.27,208.362,520.242,208.641,520.229,209.055z"/>
								<path fill="#DDC0A2" d="M520.229,209.055c-0.23,0.353-0.463,0.983-0.686,1.541c0.236-0.176,0.469-0.431,0.691-0.794
									C520.22,209.608,520.22,209.318,520.229,209.055z"/>
								<path fill="#DDC0A2" d="M509.672,226.097c0.401-2.437,1.6-4.577,1.985-1.85c1.005-1.73,1.668-9.839,1.644-14.427
									c-0.174,1.064-0.315,2.049-1.293,3.387c0.084,1.373,1.273,3.359,0.308,5.482c-1.199,1.119-0.714-0.98-1.029-2.342
									c-0.008,3.106-1.921,4.257-2.323,8.768l1.111-1.455C509.993,224.358,509.514,225.426,509.672,226.097z"/>
								<path fill="#DDC0A2" d="M514.746,210.273l0.363-0.26c-0.304-0.476-0.425-1.488-0.634-3.468
									c-0.703,1.12-0.942,2.012-1.094,2.821l1.526,0.558L514.746,210.273z"/>
								<path fill="#DDC0A2" d="M516.545,210.208c-0.635,2.62-1.561,3.643-1.509,6.587c0.957-0.044,0.974-2.123,1.699-3.193
									c-1.603,0.433,0.649-1.417-0.223-3.088c0.362-0.407,0.65-0.506,0.918-0.579c-0.225-0.363-0.43-0.803-0.606-1.332
									c0.004,0.066,0.007,0.113,0.011,0.171l0.008-0.008c-0.003,0.017-0.004,0.024-0.008,0.042
									c0.017,0.341,0.009,0.546-0.036,0.343c-0.01,0.032-0.03,0.042-0.039,0.05c-0.064,0.369-0.139,0.687-0.214,0.993
									c-0.358-0.615,0.031-0.701,0.214-0.993c0.025-0.127,0.05-0.259,0.076-0.392l-0.001-0.034l-1.726,1.239
									C515.377,210.429,515.79,210.403,516.545,210.208z"/>
								<path fill="#DDC0A2" d="M522.115,224.679c-0.011-0.242,0.02-0.431,0.046-0.624
									C522.014,224.366,521.944,224.583,522.115,224.679z"/>
								<path fill="#DDC0A2" d="M521.743,222.982c0.165-0.354,0.417-1.403,0.73-1.076c0.186,0.844-0.195,1.273-0.312,2.148
									c0.32-0.672,1.037-1.793,0.564-3.185l-0.161,0.345c-0.464-1.003-0.742-4.435-0.582-4.784
									C521.798,218.849,521.697,220.576,521.743,222.982z"/>
								<path fill="#DDC0A2" d="M519.02,217.269l-1.445,1.116l0.298,2.397l0.172-1.387
									C518.675,220.044,518.773,218.319,519.02,217.269z"/>
								<polygon fill="#DDC0A2" points="513.345,207.987 513.911,205.2 512.619,209.067 								"/>
								<polygon fill="#DDC0A2" points="511.654,208.098 512.057,205.66 511.417,207.075 								"/>
								<path fill="#DDC0A2" d="M416.937,229.84l-0.398,0.682C416.722,230.315,416.844,230.086,416.937,229.84z"/>
								<path fill="#DDC0A2" d="M419.562,230.132l0.128-1.211C419.533,229.585,419.457,230.075,419.562,230.132z"/>
								<path fill="#DDC0A2" d="M471.168,203.505c-0.312-2.347-0.568-5.965-0.778-3.195l-0.101,2.707
									C470.718,202.573,470.98,202.901,471.168,203.505z"/>
								<path fill="#DDC0A2" d="M442.178,217.186c0.031,0.268,0.064,0.552,0.096,0.831c0.199-0.916,0.384-1.77,0.554-2.554
									C442.631,215.987,442.41,216.572,442.178,217.186z"/>
								<path fill="#DDC0A2" d="M440.979,228.324l-0.573-1.791C440.52,227.152,440.702,227.748,440.979,228.324z"/>
								<path fill="#DDC0A2" d="M402.45,232.1l-0.519,2.739C402.592,234.847,402.35,233.45,402.45,232.1z"/>
								<path fill="#DDC0A2" d="M494.684,206.867c-0.338-1.107-0.657-1.595-0.968-1.765
									C494.092,206.713,494.259,209.082,494.684,206.867z"/>
								<path fill="#DDC0A2" d="M419.425,201.218c-0.254,0.479-0.379,1.025-0.403,1.627
									C419.281,202.394,419.44,201.883,419.425,201.218z"/>
								<path fill="#DDC0A2" d="M492.363,204.942c0.05,0.279,0.114,0.425,0.171,0.662c0.397-0.407,0.786-0.727,1.183-0.503
									C493.441,203.901,493.048,203.134,492.363,204.942z"/>
								<path fill="#DDC0A2" d="M350.355,229.405c-0.04-0.121-0.087-0.178-0.124-0.321
									C350.226,229.45,350.279,229.468,350.355,229.405z"/>
								<path fill="#DDC0A2" d="M334.252,202.507c0.148-0.172,0.399-0.183,0.634-0.227
									C334.765,202.098,334.572,202.122,334.252,202.507z"/>
								<path fill="#DDC0A2" d="M505.197,206.015C505.57,205.889,505.292,205.727,505.197,206.015L505.197,206.015z"/>
								<path fill="#DDC0A2" d="M505.461,216.852c-0.114,0.291-0.222,0.667-0.314,1.285
									C505.263,217.495,505.367,217.091,505.461,216.852z"/>
								<path fill="#DDC0A2" d="M486.911,221.237c-0.01-0.001-0.017-0.011-0.029-0.013
									C486.923,221.762,486.917,221.66,486.911,221.237z"/>
								<path fill="#DDC0A2" d="M505.559,207.307c-0.087-0.347-0.201-0.643-0.339-0.858
									C505.264,206.667,505.365,206.945,505.559,207.307z"/>
								<path fill="#DDC0A2" d="M505.658,206.03c0.104,0.137,0.19,0.217,0.27,0.302C506.032,205.891,506.031,205.605,505.658,206.03
									z"/>
								<path fill="#DDC0A2" d="M504.692,206.093c0.205-0.015,0.374,0.138,0.528,0.356c-0.044-0.191-0.053-0.346-0.022-0.434
									C505.089,206.043,504.938,206.078,504.692,206.093z"/>
								<path fill="#DDC0A2" d="M378.389,222.064c-0.022-0.086-0.047-0.141-0.071-0.257
									C377.96,222.928,378.114,222.749,378.389,222.064z"/>
								<path fill="#DDC0A2" d="M459.481,230.586c0.018-0.026,0.033-0.095,0.051-0.127c-0.013-0.031-0.03-0.07-0.042-0.099
									L459.481,230.586z"/>
								<path fill="#DDC0A2" d="M458.074,232.488c0.826-3.309,1.087-2.87,1.417-2.127l0.306-7.803L458.074,232.488z"/>
								<path fill="#DDC0A2" d="M410.597,230.321l0.753,2.468c-1.211,3.948-1.893,2.535-1.239,5.988
									c0.489-8.457,3.357-0.71,3.867-9.157l0.483,1.806c-0.158-0.09-0.208,0.407-0.364,0.315c0.908,4.103,1.108-6.078,2.478-4.806
									c0.465,0.671,0.75,1.916,0.362,2.904l1.21-2.04c0.314,0.179,0.16,1.644-0.152,1.468l1.72-0.596l-0.026,0.248
									c0.31-1.317,0.964-3.34,1.278-4.201c0.365,1.233-0.263,0.887-0.21,1.947l1.046-1.999c0.262,2.216-0.627,4.289-1.255,3.949
									c0.418,8.482,0.89-2.087,2.499,2.955l-0.937,1.02c0.301,4.831,1.08,3.134,1.897,6.184c-0.141-1.576-1.558-7.656-0.43-9.701
									c0.25,0.655,0.607,0.982,1.251-0.687c-0.167,3.007,0.407,2.3,1.084,2.17l-0.279,3.979c0.785-1.106,0.849-3.137,1.379-4.904
									c0.781,0.441,0.76,3.535,0.79,6.145c1.243,0.709-0.586-4.998,0.981-5.657c0.976,1.587,1.825,0.006,3.262-2.299
									c0.662,1.416-0.288,2.426-0.093,3.582l0.871-3.135c0.158,0.086,0.041,1.058-0.017,1.549
									c0.641-1.197,0.306-3.974,1.262-5.003c0.535-4.375,1.38,6.537,2.809,1.636c0.191,1.149-0.299,2.429-0.323,3.975
									c1.722-3.156,1.445-2.278,2.99-6.583l0.861,2.688c-0.554-3.044,0.686-6.507,1.772-9.346
									c-0.169-1.462-0.313-2.743-0.428-3.356l1.552-2.033c0.12,0.665-0.123,2.021-0.474,3.665
									c0.119-0.321,0.233-0.639,0.326-0.935c0.388,1.506-0.043,3.783-0.563,5.979c-0.105-0.825-0.212-1.666-0.317-2.49
									c-0.522,2.392-1.037,5.044-1.137,7.378c0.123-0.452,0.325-0.834,0.531-1.042c-0.137,0.649-0.237,1.231-0.226,1.632
									c0.016,0.423,0.224-0.448,0.525-1.445l-0.017,4.456l0.207-1.755l1.587,2.906c1.622-4.363,3.264-10.87,5.474-12.519
									c-0.773,3.206-0.537,5.299-0.876,9.147c-0.231-4.129-1.722,1.601-2.713,0.698c0.519,0.468,0.253,2.296,0.063,2.926
									l2.18-3.564c-0.295,3.146,0.211,2.396,0.597,3.74c0.132-6.257,1.743-4.024,2.671-5.867
									c-0.127,2.095-0.488,4.212-1.382,3.628c0.642,4.774,1.943-7.195,2.629-3.126c-0.234,0.032-0.33-0.3-0.51,0.754
									c0.692-1.811,1.877-0.227,1.413,1.567l-0.232,0.023c1.455,0.868,4.615,0.443,5.322-4.82
									c-0.047,0.684-0.774,6.351-0.961,7.411l4.349-17.537c-0.658,4.516-0.743,15.397-2.238,17.85
									c0.302,0.675,0.676,1.47,1.585-0.053c-0.185-0.67-0.003-6.618,0.374-7c0.454,5.142,0.393,2.765,1.124,7.182
									c-0.277-1.009,0.808-8.08,1.375-7.794c-0.193,1.055-0.623,7.024-0.907,7.743l2.127-6.835
									c-0.486,1.221-0.636,5.909-0.505,7.914c-0.017-1.382,1.24,0.251,1.694-0.402l-0.455-1.679
									c1.532,1.216,2.596-9.653,4.203-9.124c-0.346,1.423-1.385,8.821-0.648,9.782c0.738-3.537,3.445-17.019,5.206-19.622
									l0.067,2.069l1.369-2.204c-1.276,5.286-4.408,16.416-5.904,20.709c0.446,1.678-0.077,2.424,0.858,2.331
									c0.124,1.946-0.799,2.855-1.079,2.94l1.995,1.446c0.343-4.188,2.067-4.007,2.357-7.487l-2.772,4.078
									c0.336-4.17,2.584-11.707,4.033-10.793c0.209,1.702-1.084,7.387-1.2,8.781c0.349-1.413,1.73-2.579,1.759-1.547l-0.882,2.156
									c0.668,1.662,1.975-5.37,2.552-1.28c0.321,0.306,0.446,5.482,0.78,3.023c-0.038-4.817,1.472-19.538,2.256-23.065
									c0.091,0.335,1.36,4.754,1.496,7.147c0.157,3.792-1.874,8.785-1.742,12.042c0.149-1.135,0.626-2.504,0.81-2.94
									c0.258,1.013-0.551,3.508,0.305,3.083c0.615-4.208,1.584,0.539,0.785-3.527c0.921-1.119,0.732,0.961,1.672,0.88
									c0.022-2.761,1.906-9.193,2.842-10.307c-0.173,1.068-0.16,2.485-0.149,3.133c1.571,0.566,2.204,2.602,3.699,2.822
									c0.014,1.039,0.586,2.366,0.056,4.143c0.306-0.72,0.679-2.125,1.154-2.17c0.443,3.759-1.098,0.44-0.956,4.907
									c0.358-2.444,1.607-3.233,2.456-4.683c0.269-3.811-1.434-0.916-2.278,0.532c0.635-5.223,2.459-10.548,4.347-12.765
									c1.422-1.139,0.121,3.442,0.433,2.727c2.239,1.207,3.177-8.863,4.662-4.851c0.348,3.422-0.825,6.62-0.963,9.039
									c-1.182,1.132-1.293-2.306-2.003-2.26l0.65,1.68c-0.467,1.065-1.253,1.819-1.501,0.809c0.265,3.077,3.897,1.05,5.337,4.071
									c0.468-1.07,1.177-2.146,1.093-3.519l-0.634,0.386c-0.172-2.753,1.574-3.557,1.014-4.91c1.022-1.777,2.29-4.617,3.175-2.953
									l-0.311,3.818c0.128-1.11-0.404-2.355-0.866-1.244c0.683-1.615,0.966,5.358,2.14,0.467l-0.403-2.729
									c1.035-1.797,2.556-5.684,3.361-4.356c0.078-3.801-0.282,0.397-0.367-4.074c-0.154,5.527-2.455-0.572-2.278,5.283
									c-0.014-5.178-0.929-2.323-1.271-6.783c-0.139,1.253,0.006,2.435-0.727,1.707c-0.086,0.36-0.235,0.812-0.327,1.077
									c-0.02-0.037-0.026-0.059-0.043-0.101c0.009,0.055,0.016,0.099,0.025,0.154c-0.06,0.182-0.069,0.221,0.01,0.054
									c0.121,0.573,0.19,1.252,0.16,1.958c-0.79,2.814-2.069,2.546-2.701,3.97c-0.403-0.66,0.391-1.406,0.305-2.776l-0.946,2.132
									c0.303-2.789-0.679-4.781,0.676-6.26l-1.012-0.255c-0.402-1.634-1.158-2.357-1.823-1.253
									c-0.409-0.662-1.62,2.921-0.919,0.799l-1.831,1.52l0.073-0.697c-1.552-0.55-3.838,4.194-5.042-1.05
									c-0.621,0.634-1.277,1.424-2.078,0.523l0.113-2.428c-0.786,0.748-1.787-2.651-2.379-0.177
									c0.01-6.558-3.192-1.789-4.273-3.074l-0.4,3.138c-0.815-0.272-1.716,0.531-2.889,1.677l-0.242,2.785
									c-1.138,2.183-2.07-2.232-3.512-2.106c0.209-1.052,0.537-0.734,0.721-0.064c-1.021-6.479-4.033,4.198-5.082-0.532
									c-0.484,0.974-0.724,0.602-0.921-0.124c0.036-0.003,0.073-0.051,0.109-0.136c-0.036-0.037-0.093-0.049-0.153-0.049
									c-0.12-0.495-0.237-1.069-0.38-1.533c0.092,0.691,0.188,1.264,0.295,1.534c-0.3,0.029-0.78,0.33-1.287,0.983l0.113-3.006
									c-0.04,0.036-0.068,0.027-0.11,0.075c-0.32-1.145-0.486,1.381-0.481,3.651c-0.268,0.469-0.528,1.04-0.755,1.745
									c0.129-4.858-1.302,1.512-1.272-3.681c-0.539,2.48-2.378,1.671-3.111,6.927c0.051-0.689-0.046-1.029,0.192-1.049
									c-0.427-0.651-0.855-1.299-1.429,0.146l0.151-3.822l-1.534,5.007c-0.427-2.374-0.573-3.742,0.338-6.613
									c-1.961,4.366-1.413,1.587-3.128,5.934l0.285-2.453c-0.479,0.053-1.52,3.282-1.622,1.226
									c-0.641-4.764-5.131-1.093-7.474-5.671c-0.06,7.29-0.995-3.358-1.552,2.252c-0.021-1.723-0.322-2.72,0.235-4.177
									c-1.514,1.583-1.87-2.87-3.189,1.797c-0.027-1.733,0.488-2.492,0.425-3.52c-0.14,0.362-0.554,1.458-0.62,0.425
									c-0.064-1.031,0.312-1.425,0.589-2.155c-1.441,0.185-1.979,5.457-2.452,10.408c-0.536-2.399-0.919-2.094-1.67,1.12
									c-0.128-1.639-0.419-3.367,0.498-3.886c-0.473-0.273-2.838-2.598-3.168,1.374c-0.083-1.02-0.666-0.345-0.827,0.105
									c-1.085-0.318-1.158-0.683-2.266-0.386l0.256,0.672c-0.751,4.768-0.969,0.998-1.88,1.526l0.057-0.491
									c-1.775-3.581-0.968,1.607-2.69-2.462l-0.082,2.99c-0.587,6.41-1.508-3.891-2.809-1.505l0.31,1.73
									c-0.754,2.16-1.223-8.837-1.814-9.677c-0.105-0.567,0.27-0.883,0.488-1.285c-1.438-3.887-0.445,3.899-1.729,4.733
									c-0.106-2.123,0.603-5.347-0.207-5.789c-0.323-1.733-2.793,6.703-3.703,2.591c0.163,1.64,0.322,3.277-0.315,4.468
									c-0.902,0.54-2.052-6.26-3.106-1.171c-0.089-0.449-0.11-0.877-0.094-1.282c-0.737,1.291-2.287,2.096-2.822,4.856
									c-0.137-10.349-4.38,4.823-3.938-4.694l-2.083,0.411l0.094-0.968c-1.293-0.696-1.853,1.579-2.405,3.846
									c-0.278-0.658-0.022-1.539,0.023-2.037c-1.849-1.986-2.065-1.588-3.845,3.1l-0.057-3.094
									c-0.496,1.781-2.621-4.939-4.63-1.401c0.029-0.349,0.087-0.947,0.251-1.378c-2.224,3.543-4.869-8.737-5.946,2.51
									l-1.469,2.743c1.785,0.912-0.388,4.877,0.309,6.762c-0.721,0.645-1.748-3.433-0.864-3.992l0.123,0.566
									c0.46-5.859-2.196-2.127-2.06-6.119c-3.569,0.219-6.996-3.128-10.352-3.386l0.333,4.564l-1.162-0.271
									c-0.294-1.065-0.374-3.572,0.458-3.376c-0.412-2.589-1.421,2.153-1.452,3.145c-1.613-1.861,0.688-5.313,0.19-5.427
									l-0.684,0.336l0.149,0.534c-0.569,1.859-0.634,3.834-1.632,3.6c-0.626-0.918-0.304-2.815-0.552-2.994
									c0.004-0.323-0.08-0.476-0.382-0.134l-1.472-0.402l0.569,3.606c-0.661,1.77-1.379-0.2-0.724,3.885
									c-0.963-6.309-5.465-2.295-6.071-4.228c-0.91,2.629-1.805,2.588-2.92,2.277c0.28,0.747,0.458,4.796-0.499,4.305
									c0.314-8.357-1.77-3.618-2.589-9.624c0.722,3.982-2.732,0.998-1.594,6.652c-0.806-0.672-0.075-3.127-0.702-5.09
									c-1.878,3.234-4.24-2.062-6.598-0.924c-0.019,1.097,0.402,2.767-0.079,4.408l-1.338-5.46c-0.46,0.547-0.32,6.337-1.24,2.547
									c0.137,0.921,0.342,2.308,0.036,2.664c-2.361-2.626-4.709-1.501-7.065-0.934c-2.36,0.581-4.728,0.575-7.246-4.37
									c0.707,2.105,0.288,2.328-0.196,2.422c0.333,0.498,0.081,2.708,0.191,4.191l-2.104-4.065
									c-0.215,4.134-2.101,0.346-2.162,4.292l0.595-0.728c-0.653,4.678,1.524,10.303,1.609,16.277
									c0.735-5.318,2.658,7.758,3.903,0.14c0.367,1.207-0.221,1.931-0.001,3.311c0.297-2.571,0.739-3.118,1.62-1.997l-0.077,0.636
									c2.358-0.692,3.448,1.779,6.147,3.404l-0.267-2.949c0.583,0.385,0.724,1.308,1.009,2.043
									c0.556-4.489-1.615-0.224-1.132-5.171c0.9,5.995,4.056,0.018,4.704,6.837c0.88,0.02-0.323-3.414,0.558-3.39l0.268,1.844
									l0.179-2.385c0.586,0.382,0.917,2.688,0.965,4.252c-0.143-0.183-0.389,0.445-0.537,0.582
									c0.783,2.163,2.091-0.781,2.36-0.076l-0.862-1.123c2.376-1.776,5.33,0.596,7.618-3.158l-0.188-1.394
									c1.759-2.587,1.435,1.524,3.377,0.321l-0.069,0.333c0.383-1.391,0.903-2.093,1.438-1.938
									c-0.486,1.634,0.938,3.168,0.299,4.976c1.914-2.777,0.942-2.178,2.209-7.364l0.297,2.309
									c0.433-2.094,0.469-3.196,1.449-3.801c-0.803,1.989,0.621,3.52-0.276,6.149c2.031,5.038,3.05-5.092,3.962,2.304
									c0.967-6.392-1.756-3.568-1.225-4.934c-0.437-2.095,0.793-4.777,1.438-4.129c0.658,0.148,1.075,8.196,2.713,8.087
									c-0.163-0.032-0.177,0.453-0.34,0.424c0.601,1.637,1.22-2.201,1.95,0.457c0.457-3.866,0.975,0.23,1.145-4.704l-1.52,1.129
									c0.863-1.284,1.728-7.053,3.114-4.241c-0.122,0.995-0.557,2.301-0.853,3.029c0.396,1.459,0.805-0.959,1.215,0.539
									c-0.179,4.94-1.846,1.06-2.795,4.819c0.419,2.089,1.762-3.563,1.249,1.782c0.733-6.797,1.6,0.872,2.774-4.313l-0.112,2.959
									c0.181-0.464,0.564-1.859,0.887-1.781l-0.637,3.832c0.943-3.269,1.685,2.878,2.568,1.118
									c-1.798,0.053-0.348-3.574-1.078-5.748c2.292-3.913,1.158,7.766,3.659,6.4c-0.343,0.41-1.229-1.804-0.679-3.163
									c0.463,0.619,1.066,1.768,1.326,3.326c1.655-0.58-0.193-3.049,0.543-4.851c0.49,3.616,0.839-1.45,1.589-2.589l-0.059,3.008
									c1.837,1.969,0.637-6.257,2.283-3.89l-0.813,4.155l0.908-1.059l-0.262,3.417c1.018-2.518,1.303-1.854,2.217-0.876
									c-0.164-2.123,0.262-5.455,1.102-5.531c0.522,1.798-0.395,2.851,0.799,2.447c-0.319,1.876-0.673,4.231-1.112,1.45
									c-0.079,0.979-0.312,1.882-0.391,2.849c0.555,2.069,1.519,0.495,1.946,0.488c-0.161-0.118-0.352-0.288-0.441-0.718
									l1.828-4.109c0.236,1.139-0.004,2.038-0.241,2.919c0.355-0.314,0.636-1.687,1.153-1.928
									c-0.206,2.439-0.251,4.963-1.002,6.089l1.705-2.656c0.076,1.066,0.741,2.947,0.502,3.841
									c0.848,1.467,2.36-4.666,3.491-2.729c0.079-0.472,0.219-0.922,0.486-1.262c1.105,0.592,1.982,3.623,3.441,0.318l0.58,4.406
									c1.08-0.959-0.803-5.553,1.001-7.146c1.289-1.342,0.306,3.757,0.686,4.996c0.698-2.18,1.959-6.622,2.933-3.004
									C411.225,230.674,410.961,230.013,410.597,230.321z M423.557,229.02c-0.285,0.614-0.889,2.53-0.973,0.747
									C423.058,226.343,423.188,228.004,423.557,229.02z M443.659,223.092c-0.262,0.979-0.512,0.466-0.753-0.693
									C443.16,222.171,443.42,222.302,443.659,223.092z M501.054,207.936c-0.017,0.053-0.029,0.089-0.046,0.141
									C500.591,206.844,500.733,207.328,501.054,207.936z M502.065,209.378c0.173-0.401,0.219-0.816,0.224-1.239
									c-0.181,0.745-0.453,0.763-0.727,0.514C501.543,209.445,501.625,210.002,502.065,209.378z M374.858,201.787l0.225,0.788
									C374.556,203.438,374.707,202.656,374.858,201.787z"/>
								<path fill="#DDC0A2" d="M441.125,227.034c-0.033-0.512-0.012-1.073,0.013-1.638
									C441.002,225.893,440.958,226.475,441.125,227.034z"/>
								<path fill="#DDC0A2" d="M402.546,231.594c-0.012-0.025-0.025-0.016-0.038-0.035c-0.028,0.179-0.046,0.362-0.058,0.541
									L402.546,231.594z"/>
								<path fill="#DDC0A2" d="M480.929,232.509c-0.188-0.457-0.259-1.018-0.283-1.594
									C480.551,231.646,480.589,232.275,480.929,232.509z"/>
								<path fill="#DDC0A2" d="M508.994,205.168l-0.863,0.671c0.386-0.097,0.428,0.573,0.548,1.071
									C508.757,206.211,508.75,205.183,508.994,205.168z"/>
								<path fill="#DDC0A2" d="M512.925,224.501c0.161-0.35,0.236-0.008,0.397-0.363l0.169-1.388
									C513.014,222.777,512.53,223.848,512.925,224.501z"/>
								<path fill="#DDC0A2" d="M508.332,215.166c-0.286,2.515,0.301,1.729,0.89,1.337c-0.033,0.005-0.066,0.022-0.093-0.013
									C509.77,213.004,509.048,214.088,508.332,215.166z"/>
								<path fill="#DDC0A2" d="M509.355,216.436c0.178-0.095,0.352-0.138,0.494,0.004
									C510.106,215.043,509.693,216.12,509.355,216.436z"/>
								<path fill="#DDC0A2" d="M503.778,207.916c0.165,0.681,0.583-3.186,0.589-2.144
									C505.069,202.617,502.182,209.405,503.778,207.916z"/>
								<polygon fill="#DDC0A2" points="507.616,223.484 507.856,220.363 507.22,222.817 								"/>
								<path fill="#DDC0A2" d="M503.805,220.644l0.719,0.972c0.057-0.521,0.205-0.811,0.366-1.025
									C504.39,220.417,503.908,219.723,503.805,220.644z"/>
								<path fill="#DDC0A2" d="M504.89,220.591c0.26,0.097,0.524,0.066,0.742-0.42C505.482,220.183,505.156,220.243,504.89,220.591
									z"/>
								<polygon fill="#DDC0A2" points="506.35,224.256 506.193,223.576 505.636,223.268 								"/>
								<path fill="#DDC0A2" d="M494.895,218.888l-1.024,0.774c-0.225,1.051-0.058,1.732,0.334,1.352
									C494.516,220.301,494.906,219.932,494.895,218.888z"/>
								<path fill="#DDC0A2" d="M496.571,227.719c-0.163-0.674-0.091-1.367-0.099-2.406l-0.518,3.838L496.571,227.719z"/>
								<path fill="#DDC0A2" d="M493.817,228.286c-0.225,1.055-1.693,2.897-0.519,2.798
									C493.521,230.038,494.538,229.266,493.817,228.286z"/>
								<polygon fill="#DDC0A2" points="480.716,221.8 480.954,221.777 481.628,215.461 								"/>
								<path fill="#DDC0A2" d="M467.105,235.635c0.912,1.62,0.645-3.874,1.418-1.889c0.402-1.468-0.633-1.62-0.246-2.885
									C467.473,232.373,467.225,231.449,467.105,235.635z"/>
								<path fill="#DDC0A2" d="M468.277,230.861c0.128-0.238,0.269-0.53,0.427-0.928
									C468.476,230.309,468.358,230.603,468.277,230.861z"/>
								<polygon fill="#DDC0A2" points="331.539,199.18 330.781,197.878 331.316,199.997 								"/>
								<path fill="#DDC0A2" d="M330.351,203.929l-0.317-4.039l-0.288,3.673C329.899,203.38,330.196,203.02,330.351,203.929z"/>
								<path fill="#DDC0A2" d="M424.997,237.276l0.109-0.97c-0.045-1.058-0.201-1.147-0.512-1.33L424.997,237.276z"/>
								<polygon fill="#DDC0A2" points="415.877,233.756 416.033,233.845 415.912,230.176 								"/>
								<path fill="#DDC0A2" d="M407.883,238.051c0.311,0.167,0.717-0.631,1.029-0.461
									C408.194,238.218,407.983,233.487,407.883,238.051z"/>
							</g>
						</g>
					</g>
				</g>
			</g>
			<g opacity="0.5" clip-path="url(#SVGID_31_)">
				<g>
					<g>
						<g>
							<g>
								<path fill="#DDC0A2" d="M536.285,319.649c0.273,0.277,0.6-2.317,0.725-2.772
									C536.39,317.362,536.184,320.321,536.285,319.649z"/>
								<polygon fill="#DDC0A2" points="530.173,324.659 530.437,323.622 529.258,326.077 								"/>
								<path fill="#DDC0A2" d="M525.394,323.827c-0.254,4.469,1.848-0.426,2.448,1.277l-0.023,1.024l0.961-3.471
									C527.65,323.046,525.926,325.173,525.394,323.827z"/>
								<path fill="#DDC0A2" d="M524.342,313.9c-0.111,1.738-0.789,1.383,0.516,0.634c-0.029-0.196-0.028-0.307-0.04-0.451
									C524.709,314.09,524.566,314.063,524.342,313.9z"/>
								<path fill="#DDC0A2" d="M524.817,314.082C525.346,314.042,524.712,312.59,524.817,314.082L524.817,314.082z"/>
								<path fill="#DDC0A2" d="M522.313,314.695l0.91-1.427c0.018-1.032-0.545-1.351-0.208-2.051
									C522.194,311.949,522.181,312.975,522.313,314.695z"/>
								<path fill="#DDC0A2" d="M521.178,317.809l0.447-0.595C521.631,316.781,521.562,316.62,521.178,317.809z"/>
								<path fill="#DDC0A2" d="M522.574,315.96l-0.949,1.254c-0.014,0.725-0.226,2.152,0.414-0.442
									C521.777,318.066,522.117,316.836,522.574,315.96z"/>
								<path fill="#DDC0A2" d="M522.886,316.693c0.226,1.012,0.614,1.692-0.295,3.108
									C523.961,319.403,524.264,316.278,522.886,316.693z"/>
								<path fill="#DDC0A2" d="M524.422,328.333l0.289,1.368l0.665-1.403C525.045,328.994,524.612,326.951,524.422,328.333z"/>
								<path fill="#DDC0A2" d="M518.481,311.786c-0.184,0.93-0.154,2.53-0.286,3.735l0.659-1
									C518.697,313.842,518.304,313.179,518.481,311.786z"/>
								<path fill="#DDC0A2" d="M518.195,315.521l-0.984,1.496C517.843,317.306,518.08,316.56,518.195,315.521z"/>
								<polygon fill="#DDC0A2" points="520.301,322.674 522.037,319.481 520.061,322.684 								"/>
								<polygon fill="#DDC0A2" points="515.662,311.241 516.407,309.136 515.168,312.299 								"/>
								<path fill="#DDC0A2" d="M513.724,311.337c0.577-1.748,0.02-3.104,0.513-4.16c-0.56,0.242-1.225,1.721-1.82,3.048
									C512.947,309.514,513.365,309.78,513.724,311.337z"/>
								<path fill="#DDC0A2" d="M511.462,312.147c0.271-0.399,0.599-1.138,0.954-1.922
									C512.134,310.607,511.828,311.171,511.462,312.147z"/>
								<path fill="#DDC0A2" d="M516.022,316.364c0.028-0.575,0.141-2.073-0.182-2.762l-0.104,2.678
									C515.824,316.306,515.922,316.334,516.022,316.364z"/>
								<path fill="#DDC0A2" d="M515.734,316.366l0.002-0.086c-0.307-0.105-0.517-0.198-0.606-0.242
									C515.207,316.074,515.39,316.169,515.734,316.366z"/>
								<path fill="#DDC0A2" d="M516.093,316.386c-0.026-0.01-0.045-0.019-0.072-0.023
									C516.011,316.627,516.015,316.716,516.093,316.386z"/>
								<path fill="#DDC0A2" d="M518.738,320c-0.66,1.406-1.8,2.851-1.273,5.228C518.051,323.471,517.747,322.117,518.738,320z"/>
								<path fill="#DDC0A2" d="M515.958,319.735l0.692,0.72c0.09-0.698,0.102-1.734,0.428-2.433L515.958,319.735z"/>
								<polygon fill="#DDC0A2" points="515.449,320.514 515.958,319.735 515.701,319.468 								"/>
								<path fill="#DDC0A2" d="M512.45,314.818c-0.508,1.096-0.893,1.137-1.339,1.257c0.374,0.586,0.797,0.936,1.238,0.997
									C512.533,316.253,512.945,314.798,512.45,314.818z"/>
								<path fill="#DDC0A2" d="M514.012,315.802c-0.032,0.056-0.067,0.082-0.098,0.139
									C513.928,316.171,513.954,316.249,514.012,315.802z"/>
								<path fill="#DDC0A2" d="M506.983,315.47c-0.001,0.157-0.001,0.325-0.002,0.489c0.027-0.154,0.053-0.298,0.08-0.453
									L506.983,315.47z"/>
								<path fill="#DDC0A2" d="M512.352,317.575c0.262,0.56,0.559-0.055,0.871-0.839c-0.292,0.227-0.584,0.358-0.874,0.337
									C512.266,317.441,512.225,317.687,512.352,317.575z"/>
								<path fill="#DDC0A2" d="M510.129,313.206c0.097,0.578,0.229,1.075,0.376,1.538
									C510.454,313.883,510.29,312.528,510.129,313.206z"/>
								<path fill="#DDC0A2" d="M513.909,315.195c0.023-0.039,0.046-0.085,0.068-0.11
									C513.95,314.502,513.922,314.781,513.909,315.195z"/>
								<path fill="#DDC0A2" d="M513.909,315.195c-0.23,0.353-0.463,0.983-0.686,1.541c0.236-0.176,0.469-0.431,0.691-0.794
									C513.901,315.748,513.9,315.459,513.909,315.195z"/>
								<path fill="#DDC0A2" d="M503.352,332.237c0.401-2.437,1.6-4.577,1.985-1.85c1.005-1.73,1.668-9.839,1.644-14.427
									c-0.174,1.064-0.315,2.049-1.293,3.387c0.084,1.373,1.273,3.359,0.308,5.482c-1.199,1.119-0.714-0.98-1.029-2.342
									c-0.008,3.106-1.921,4.257-2.323,8.768l1.111-1.454C503.673,330.498,503.194,331.567,503.352,332.237z"/>
								<path fill="#DDC0A2" d="M508.426,316.413l0.363-0.26c-0.304-0.476-0.424-1.488-0.634-3.468
									c-0.703,1.12-0.942,2.012-1.094,2.821l1.526,0.558L508.426,316.413z"/>
								<path fill="#DDC0A2" d="M510.225,316.349c-0.635,2.62-1.561,3.643-1.509,6.587c0.957-0.044,0.974-2.123,1.699-3.193
									c-1.603,0.433,0.649-1.417-0.223-3.088c0.362-0.407,0.65-0.506,0.918-0.579c-0.225-0.363-0.43-0.803-0.606-1.332
									c0.004,0.066,0.007,0.113,0.011,0.171l0.008-0.008c-0.003,0.017-0.004,0.024-0.008,0.042
									c0.017,0.341,0.009,0.546-0.036,0.343c-0.01,0.032-0.03,0.042-0.039,0.05c-0.064,0.369-0.139,0.687-0.214,0.993
									c-0.358-0.615,0.031-0.701,0.214-0.993c0.025-0.127,0.05-0.259,0.076-0.392l-0.001-0.034l-1.727,1.239
									C509.057,316.57,509.47,316.543,510.225,316.349z"/>
								<path fill="#DDC0A2" d="M515.795,330.819c-0.011-0.242,0.02-0.431,0.046-0.624
									C515.695,330.506,515.624,330.723,515.795,330.819z"/>
								<path fill="#DDC0A2" d="M515.423,329.122c0.165-0.354,0.417-1.403,0.73-1.076c0.186,0.844-0.195,1.273-0.312,2.148
									c0.32-0.672,1.037-1.793,0.564-3.185l-0.161,0.345c-0.464-1.003-0.742-4.435-0.581-4.784
									C515.478,324.989,515.377,326.717,515.423,329.122z"/>
								<path fill="#DDC0A2" d="M512.7,323.409l-1.445,1.116l0.298,2.397l0.172-1.387
									C512.355,326.184,512.454,324.459,512.7,323.409z"/>
								<polygon fill="#DDC0A2" points="507.026,314.127 507.591,311.341 506.299,315.207 								"/>
								<polygon fill="#DDC0A2" points="505.334,314.238 505.737,311.801 505.097,313.216 								"/>
								<path fill="#DDC0A2" d="M410.617,335.981l-0.398,0.682C410.402,336.455,410.524,336.226,410.617,335.981z"/>
								<path fill="#DDC0A2" d="M413.242,336.272l0.128-1.211C413.213,335.725,413.138,336.216,413.242,336.272z"/>
								<path fill="#DDC0A2" d="M464.849,309.645c-0.312-2.347-0.568-5.965-0.778-3.195l-0.101,2.707
									C464.398,308.713,464.66,309.042,464.849,309.645z"/>
								<path fill="#DDC0A2" d="M435.858,323.327c0.031,0.268,0.064,0.552,0.096,0.831c0.199-0.916,0.384-1.77,0.554-2.554
									C436.311,322.127,436.09,322.712,435.858,323.327z"/>
								<path fill="#DDC0A2" d="M434.659,334.464l-0.573-1.791C434.2,333.292,434.383,333.889,434.659,334.464z"/>
								<path fill="#DDC0A2" d="M396.13,338.241l-0.519,2.739C396.273,340.987,396.031,339.59,396.13,338.241z"/>
								<path fill="#DDC0A2" d="M488.364,313.007c-0.338-1.107-0.657-1.595-0.968-1.765
									C487.772,312.854,487.94,315.222,488.364,313.007z"/>
								<path fill="#DDC0A2" d="M413.105,307.358c-0.254,0.479-0.379,1.025-0.403,1.627
									C412.961,308.534,413.12,308.023,413.105,307.358z"/>
								<path fill="#DDC0A2" d="M486.043,311.082c0.05,0.279,0.114,0.425,0.171,0.662c0.397-0.407,0.786-0.727,1.183-0.503
									C487.121,310.041,486.728,309.274,486.043,311.082z"/>
								<path fill="#DDC0A2" d="M344.035,335.546c-0.04-0.121-0.087-0.178-0.124-0.321
									C343.906,335.59,343.959,335.608,344.035,335.546z"/>
								<path fill="#DDC0A2" d="M327.932,308.647c0.148-0.172,0.399-0.183,0.634-0.227
									C328.445,308.238,328.253,308.262,327.932,308.647z"/>
								<path fill="#DDC0A2" d="M498.877,312.156C499.25,312.029,498.972,311.867,498.877,312.156L498.877,312.156z"/>
								<path fill="#DDC0A2" d="M499.142,322.992c-0.114,0.291-0.222,0.667-0.314,1.285
									C498.943,323.635,499.047,323.231,499.142,322.992z"/>
								<path fill="#DDC0A2" d="M480.591,327.377c-0.01-0.001-0.017-0.011-0.029-0.013
									C480.603,327.903,480.597,327.8,480.591,327.377z"/>
								<path fill="#DDC0A2" d="M499.239,313.447c-0.087-0.347-0.201-0.643-0.339-0.858
									C498.944,312.807,499.045,313.085,499.239,313.447z"/>
								<path fill="#DDC0A2" d="M499.338,312.17c0.104,0.137,0.19,0.217,0.27,0.302C499.713,312.031,499.711,311.745,499.338,312.17
									z"/>
								<path fill="#DDC0A2" d="M498.372,312.233c0.205-0.015,0.374,0.138,0.528,0.356c-0.044-0.191-0.053-0.346-0.022-0.434
									C498.77,312.184,498.618,312.218,498.372,312.233z"/>
								<path fill="#DDC0A2" d="M372.069,328.204c-0.022-0.086-0.047-0.141-0.071-0.257
									C371.64,329.068,371.794,328.89,372.069,328.204z"/>
								<path fill="#DDC0A2" d="M453.161,336.726c0.018-0.026,0.033-0.095,0.051-0.127c-0.013-0.031-0.03-0.07-0.042-0.099
									L453.161,336.726z"/>
								<path fill="#DDC0A2" d="M451.754,338.628c0.826-3.309,1.087-2.871,1.417-2.127l0.306-7.803L451.754,338.628z"/>
								<path fill="#DDC0A2" d="M404.278,336.462l0.753,2.468c-1.211,3.948-1.893,2.535-1.239,5.988
									c0.489-8.457,3.357-0.71,3.867-9.157l0.483,1.806c-0.158-0.09-0.208,0.407-0.364,0.315c0.908,4.103,1.108-6.078,2.478-4.806
									c0.465,0.671,0.75,1.916,0.362,2.904l1.21-2.04c0.314,0.179,0.16,1.644-0.152,1.468l1.72-0.596l-0.026,0.249
									c0.31-1.317,0.964-3.34,1.278-4.201c0.365,1.233-0.263,0.887-0.21,1.947l1.046-1.999c0.262,2.216-0.627,4.289-1.255,3.949
									c0.418,8.482,0.89-2.087,2.499,2.955l-0.937,1.02c0.301,4.831,1.08,3.134,1.897,6.184c-0.141-1.576-1.558-7.656-0.43-9.701
									c0.25,0.655,0.607,0.982,1.251-0.687c-0.167,3.007,0.407,2.3,1.084,2.17l-0.279,3.979c0.785-1.106,0.849-3.137,1.379-4.904
									c0.781,0.441,0.76,3.535,0.79,6.145c1.243,0.709-0.586-4.998,0.981-5.657c0.976,1.587,1.825,0.006,3.262-2.299
									c0.662,1.416-0.288,2.426-0.093,3.582l0.871-3.135c0.158,0.086,0.041,1.058-0.017,1.549
									c0.641-1.197,0.306-3.974,1.262-5.003c0.535-4.375,1.38,6.537,2.809,1.636c0.191,1.149-0.299,2.429-0.323,3.975
									c1.722-3.156,1.445-2.278,2.99-6.583l0.861,2.688c-0.554-3.044,0.686-6.507,1.772-9.346
									c-0.169-1.462-0.313-2.743-0.428-3.356l1.552-2.033c0.12,0.665-0.123,2.021-0.474,3.665
									c0.119-0.321,0.233-0.639,0.326-0.935c0.388,1.506-0.043,3.783-0.563,5.979c-0.105-0.825-0.212-1.666-0.317-2.49
									c-0.522,2.392-1.037,5.044-1.137,7.378c0.123-0.452,0.325-0.834,0.531-1.042c-0.137,0.649-0.237,1.231-0.226,1.632
									c0.016,0.423,0.224-0.448,0.525-1.445l-0.017,4.456l0.207-1.755l1.587,2.906c1.622-4.363,3.264-10.87,5.474-12.519
									c-0.773,3.206-0.537,5.298-0.876,9.147c-0.231-4.129-1.722,1.601-2.713,0.698c0.519,0.468,0.253,2.296,0.063,2.926
									l2.18-3.564c-0.295,3.146,0.211,2.396,0.597,3.74c0.132-6.257,1.743-4.024,2.671-5.867
									c-0.127,2.095-0.488,4.212-1.382,3.628c0.642,4.774,1.943-7.195,2.629-3.126c-0.234,0.032-0.33-0.3-0.51,0.754
									c0.692-1.811,1.877-0.227,1.413,1.567l-0.232,0.023c1.455,0.868,4.615,0.443,5.322-4.82
									c-0.047,0.684-0.774,6.351-0.961,7.411l4.349-17.537c-0.658,4.516-0.743,15.397-2.238,17.85
									c0.302,0.675,0.676,1.47,1.585-0.053c-0.185-0.67-0.003-6.618,0.374-7c0.454,5.142,0.393,2.765,1.124,7.182
									c-0.277-1.009,0.808-8.08,1.375-7.794c-0.193,1.055-0.623,7.024-0.907,7.743l2.126-6.835
									c-0.486,1.221-0.636,5.909-0.505,7.914c-0.017-1.382,1.24,0.251,1.694-0.402l-0.455-1.679
									c1.532,1.216,2.596-9.653,4.203-9.124c-0.346,1.423-1.385,8.821-0.648,9.782c0.738-3.537,3.445-17.019,5.206-19.622
									l0.067,2.069l1.369-2.204c-1.276,5.286-4.408,16.416-5.904,20.709c0.446,1.678-0.077,2.424,0.858,2.331
									c0.124,1.946-0.799,2.855-1.079,2.94l1.995,1.446c0.343-4.188,2.067-4.007,2.357-7.487l-2.772,4.078
									c0.336-4.17,2.584-11.707,4.033-10.792c0.209,1.702-1.084,7.387-1.2,8.781c0.349-1.413,1.73-2.579,1.759-1.547l-0.882,2.156
									c0.668,1.662,1.975-5.37,2.552-1.28c0.321,0.306,0.446,5.482,0.78,3.023c-0.038-4.817,1.472-19.538,2.256-23.065
									c0.091,0.335,1.36,4.754,1.496,7.147c0.157,3.792-1.874,8.785-1.742,12.042c0.149-1.135,0.626-2.504,0.81-2.94
									c0.258,1.013-0.551,3.508,0.305,3.083c0.615-4.208,1.584,0.539,0.785-3.527c0.921-1.119,0.732,0.961,1.672,0.88
									c0.022-2.761,1.906-9.193,2.842-10.307c-0.173,1.068-0.16,2.485-0.149,3.133c1.571,0.566,2.204,2.602,3.699,2.822
									c0.014,1.039,0.586,2.366,0.056,4.143c0.306-0.72,0.679-2.125,1.154-2.17c0.443,3.759-1.098,0.44-0.956,4.907
									c0.358-2.444,1.607-3.233,2.456-4.683c0.269-3.811-1.434-0.916-2.278,0.532c0.635-5.223,2.459-10.548,4.347-12.764
									c1.422-1.139,0.121,3.442,0.433,2.727c2.239,1.207,3.177-8.863,4.662-4.851c0.348,3.422-0.825,6.62-0.963,9.039
									c-1.182,1.132-1.293-2.306-2.003-2.26l0.65,1.68c-0.467,1.065-1.253,1.819-1.501,0.809c0.265,3.077,3.897,1.05,5.337,4.071
									c0.468-1.07,1.177-2.146,1.093-3.519l-0.634,0.386c-0.172-2.753,1.574-3.557,1.014-4.91c1.022-1.777,2.29-4.617,3.175-2.953
									l-0.311,3.818c0.128-1.11-0.404-2.355-0.866-1.244c0.683-1.615,0.966,5.358,2.14,0.467l-0.403-2.729
									c1.035-1.797,2.556-5.684,3.361-4.356c0.078-3.801-0.282,0.397-0.367-4.074c-0.154,5.527-2.455-0.572-2.278,5.283
									c-0.014-5.178-0.929-2.323-1.271-6.783c-0.139,1.253,0.006,2.435-0.727,1.707c-0.086,0.36-0.235,0.812-0.327,1.077
									c-0.02-0.037-0.026-0.059-0.043-0.101c0.009,0.055,0.016,0.099,0.025,0.154c-0.06,0.182-0.069,0.221,0.01,0.054
									c0.121,0.573,0.19,1.252,0.16,1.958c-0.79,2.814-2.069,2.546-2.702,3.97c-0.403-0.66,0.391-1.406,0.305-2.776l-0.946,2.132
									c0.303-2.789-0.679-4.781,0.676-6.26l-1.012-0.255c-0.402-1.634-1.158-2.357-1.823-1.253
									c-0.409-0.662-1.62,2.921-0.919,0.799l-1.831,1.52l0.073-0.697c-1.552-0.55-3.838,4.194-5.042-1.05
									c-0.621,0.634-1.277,1.424-2.078,0.523l0.113-2.428c-0.786,0.748-1.787-2.651-2.379-0.177
									c0.01-6.558-3.192-1.789-4.273-3.074l-0.4,3.138c-0.815-0.272-1.716,0.531-2.889,1.677l-0.242,2.785
									c-1.138,2.183-2.07-2.232-3.512-2.106c0.209-1.052,0.537-0.734,0.721-0.064c-1.021-6.479-4.033,4.198-5.082-0.532
									c-0.484,0.974-0.724,0.602-0.921-0.124c0.036-0.003,0.073-0.051,0.109-0.136c-0.036-0.037-0.093-0.049-0.153-0.049
									c-0.12-0.495-0.237-1.069-0.38-1.533c0.092,0.691,0.188,1.264,0.295,1.534c-0.3,0.029-0.78,0.33-1.287,0.983l0.113-3.006
									c-0.04,0.036-0.068,0.027-0.11,0.075c-0.32-1.145-0.486,1.381-0.481,3.651c-0.268,0.469-0.528,1.04-0.755,1.745
									c0.129-4.858-1.302,1.512-1.272-3.681c-0.539,2.48-2.378,1.671-3.111,6.927c0.051-0.689-0.046-1.029,0.192-1.049
									c-0.427-0.651-0.855-1.299-1.429,0.146l0.151-3.822l-1.534,5.007c-0.427-2.374-0.573-3.742,0.338-6.613
									c-1.961,4.366-1.413,1.587-3.128,5.934l0.285-2.453c-0.479,0.053-1.52,3.282-1.622,1.226
									c-0.641-4.764-5.131-1.093-7.474-5.671c-0.06,7.29-0.995-3.358-1.552,2.252c-0.021-1.723-0.322-2.72,0.235-4.177
									c-1.514,1.583-1.87-2.87-3.189,1.797c-0.027-1.733,0.488-2.492,0.425-3.519c-0.14,0.362-0.554,1.458-0.62,0.425
									c-0.064-1.031,0.312-1.425,0.589-2.155c-1.441,0.185-1.98,5.457-2.452,10.408c-0.536-2.399-0.919-2.094-1.67,1.12
									c-0.128-1.639-0.419-3.367,0.498-3.886c-0.473-0.273-2.838-2.598-3.168,1.374c-0.083-1.02-0.666-0.345-0.827,0.105
									c-1.085-0.318-1.158-0.683-2.266-0.386l0.256,0.672c-0.751,4.768-0.969,0.998-1.88,1.526l0.057-0.491
									c-1.775-3.581-0.968,1.607-2.69-2.462l-0.082,2.99c-0.587,6.409-1.508-3.891-2.809-1.505l0.31,1.73
									c-0.754,2.16-1.223-8.837-1.814-9.677c-0.105-0.567,0.271-0.883,0.488-1.285c-1.438-3.887-0.445,3.899-1.729,4.733
									c-0.106-2.123,0.603-5.347-0.207-5.789c-0.323-1.733-2.793,6.703-3.703,2.591c0.163,1.64,0.322,3.277-0.315,4.468
									c-0.902,0.54-2.052-6.26-3.106-1.171c-0.089-0.449-0.11-0.877-0.094-1.282c-0.737,1.291-2.287,2.096-2.822,4.856
									c-0.137-10.349-4.38,4.823-3.938-4.694l-2.083,0.411l0.094-0.968c-1.293-0.696-1.853,1.579-2.405,3.846
									c-0.278-0.658-0.022-1.539,0.023-2.037c-1.849-1.986-2.065-1.588-3.845,3.1l-0.057-3.094
									c-0.496,1.781-2.621-4.939-4.63-1.401c0.029-0.349,0.087-0.947,0.251-1.378c-2.224,3.543-4.869-8.737-5.946,2.51
									l-1.468,2.743c1.785,0.912-0.388,4.877,0.309,6.762c-0.721,0.645-1.748-3.433-0.864-3.992l0.123,0.566
									c0.46-5.859-2.196-2.127-2.06-6.119c-3.569,0.219-6.996-3.128-10.352-3.386l0.333,4.564l-1.162-0.271
									c-0.294-1.065-0.374-3.572,0.458-3.376c-0.412-2.589-1.421,2.153-1.452,3.145c-1.613-1.861,0.688-5.314,0.19-5.427
									l-0.684,0.336l0.149,0.534c-0.569,1.859-0.634,3.834-1.632,3.6c-0.626-0.918-0.304-2.815-0.552-2.994
									c0.004-0.323-0.08-0.476-0.382-0.134l-1.472-0.402l0.568,3.606c-0.661,1.77-1.379-0.2-0.724,3.885
									c-0.963-6.309-5.465-2.295-6.071-4.228c-0.91,2.629-1.805,2.588-2.92,2.277c0.28,0.748,0.458,4.796-0.499,4.305
									c0.314-8.357-1.771-3.618-2.589-9.624c0.723,3.982-2.732,0.998-1.594,6.652c-0.806-0.672-0.075-3.127-0.702-5.09
									c-1.878,3.234-4.24-2.062-6.598-0.924c-0.019,1.097,0.401,2.767-0.079,4.408l-1.338-5.46c-0.46,0.547-0.32,6.337-1.24,2.547
									c0.137,0.921,0.342,2.308,0.036,2.664c-2.361-2.626-4.709-1.501-7.065-0.934c-2.36,0.581-4.728,0.575-7.246-4.37
									c0.707,2.105,0.288,2.328-0.196,2.422c0.333,0.498,0.081,2.708,0.191,4.191l-2.104-4.065
									c-0.215,4.134-2.101,0.346-2.162,4.292l0.595-0.728c-0.653,4.678,1.524,10.303,1.609,16.277
									c0.735-5.318,2.658,7.758,3.903,0.14c0.367,1.207-0.221,1.931-0.001,3.311c0.297-2.571,0.739-3.118,1.62-1.997l-0.077,0.636
									c2.358-0.692,3.448,1.779,6.147,3.404l-0.267-2.949c0.583,0.385,0.725,1.308,1.009,2.043
									c0.556-4.489-1.615-0.224-1.132-5.171c0.9,5.995,4.056,0.018,4.704,6.837c0.88,0.02-0.323-3.414,0.558-3.39l0.268,1.844
									l0.179-2.385c0.586,0.382,0.917,2.688,0.965,4.252c-0.143-0.183-0.389,0.445-0.537,0.582
									c0.783,2.163,2.091-0.781,2.36-0.076l-0.862-1.123c2.376-1.776,5.33,0.596,7.618-3.158l-0.188-1.394
									c1.759-2.587,1.435,1.524,3.377,0.321l-0.069,0.333c0.383-1.391,0.903-2.093,1.438-1.938
									c-0.486,1.634,0.938,3.168,0.299,4.976c1.914-2.777,0.942-2.178,2.209-7.364l0.297,2.309
									c0.433-2.094,0.469-3.196,1.449-3.801c-0.803,1.989,0.621,3.52-0.276,6.149c2.031,5.038,3.05-5.092,3.962,2.304
									c0.967-6.392-1.756-3.568-1.225-4.934c-0.437-2.095,0.793-4.777,1.438-4.129c0.658,0.148,1.075,8.196,2.713,8.087
									c-0.163-0.032-0.177,0.453-0.34,0.424c0.601,1.637,1.22-2.201,1.95,0.457c0.457-3.866,0.975,0.23,1.145-4.704l-1.52,1.129
									c0.863-1.284,1.728-7.053,3.114-4.241c-0.122,0.995-0.557,2.301-0.853,3.029c0.396,1.459,0.805-0.959,1.215,0.539
									c-0.179,4.94-1.846,1.06-2.795,4.819c0.419,2.089,1.762-3.563,1.249,1.782c0.733-6.797,1.6,0.872,2.774-4.313l-0.112,2.959
									c0.181-0.464,0.564-1.859,0.887-1.781l-0.637,3.832c0.943-3.269,1.685,2.878,2.568,1.118
									c-1.798,0.053-0.348-3.574-1.078-5.748c2.292-3.913,1.158,7.766,3.659,6.4c-0.343,0.41-1.229-1.804-0.679-3.163
									c0.463,0.619,1.066,1.768,1.326,3.326c1.655-0.58-0.193-3.049,0.543-4.851c0.49,3.616,0.839-1.45,1.589-2.589l-0.059,3.008
									c1.837,1.969,0.637-6.257,2.283-3.89l-0.813,4.155l0.908-1.059l-0.262,3.417c1.018-2.518,1.303-1.854,2.217-0.876
									c-0.164-2.123,0.262-5.455,1.102-5.531c0.522,1.798-0.395,2.851,0.799,2.447c-0.319,1.876-0.673,4.231-1.112,1.45
									c-0.079,0.979-0.312,1.882-0.391,2.849c0.555,2.069,1.519,0.495,1.946,0.488c-0.161-0.118-0.352-0.288-0.441-0.718
									l1.828-4.109c0.236,1.139-0.004,2.038-0.241,2.919c0.355-0.314,0.636-1.687,1.153-1.928
									c-0.206,2.439-0.251,4.963-1.002,6.089l1.705-2.656c0.076,1.066,0.741,2.947,0.502,3.841
									c0.848,1.467,2.36-4.666,3.491-2.729c0.079-0.472,0.219-0.922,0.486-1.262c1.105,0.592,1.982,3.623,3.441,0.318l0.58,4.406
									c1.08-0.959-0.803-5.553,1.001-7.146c1.289-1.342,0.306,3.757,0.686,4.996c0.698-2.18,1.959-6.622,2.933-3.004
									C404.905,336.815,404.641,336.153,404.278,336.462z M417.237,335.161c-0.285,0.614-0.889,2.53-0.973,0.747
									C416.738,332.483,416.868,334.144,417.237,335.161z M437.339,329.233c-0.262,0.979-0.512,0.466-0.753-0.693
									C436.841,328.311,437.1,328.442,437.339,329.233z M494.734,314.077c-0.017,0.053-0.029,0.089-0.046,0.141
									C494.271,312.984,494.413,313.468,494.734,314.077z M495.745,315.519c0.173-0.401,0.219-0.816,0.224-1.239
									c-0.181,0.745-0.453,0.763-0.727,0.514C495.224,315.586,495.305,316.143,495.745,315.519z M368.538,307.927l0.225,0.788
									C368.236,309.578,368.387,308.797,368.538,307.927z"/>
								<path fill="#DDC0A2" d="M434.805,333.174c-0.033-0.512-0.012-1.073,0.013-1.638
									C434.682,332.033,434.638,332.616,434.805,333.174z"/>
								<path fill="#DDC0A2" d="M396.227,337.735c-0.012-0.025-0.025-0.016-0.038-0.035c-0.028,0.179-0.046,0.362-0.058,0.541
									L396.227,337.735z"/>
								<path fill="#DDC0A2" d="M474.609,338.65c-0.188-0.457-0.259-1.018-0.283-1.594
									C474.231,337.786,474.269,338.415,474.609,338.65z"/>
								<path fill="#DDC0A2" d="M502.674,311.308l-0.863,0.671c0.386-0.097,0.428,0.573,0.548,1.071
									C502.437,312.351,502.431,311.323,502.674,311.308z"/>
								<path fill="#DDC0A2" d="M506.605,330.641c0.161-0.35,0.236-0.008,0.397-0.363l0.169-1.388
									C506.694,328.917,506.21,329.988,506.605,330.641z"/>
								<path fill="#DDC0A2" d="M502.012,321.307c-0.286,2.515,0.301,1.729,0.89,1.337c-0.033,0.005-0.066,0.022-0.093-0.013
									C503.451,319.145,502.728,320.228,502.012,321.307z"/>
								<path fill="#DDC0A2" d="M503.035,322.576c0.178-0.095,0.352-0.138,0.494,0.004
									C503.787,321.183,503.373,322.26,503.035,322.576z"/>
								<path fill="#DDC0A2" d="M497.458,314.056c0.165,0.68,0.583-3.186,0.589-2.144
									C498.75,308.757,495.862,315.545,497.458,314.056z"/>
								<polygon fill="#DDC0A2" points="501.297,329.624 501.536,326.503 500.9,328.957 								"/>
								<path fill="#DDC0A2" d="M497.485,326.784l0.719,0.972c0.057-0.521,0.204-0.811,0.366-1.025
									C498.07,326.557,497.588,325.864,497.485,326.784z"/>
								<path fill="#DDC0A2" d="M498.57,326.731c0.26,0.097,0.524,0.066,0.742-0.42C499.163,326.323,498.836,326.383,498.57,326.731
									z"/>
								<polygon fill="#DDC0A2" points="500.031,330.396 499.873,329.717 499.316,329.409 								"/>
								<path fill="#DDC0A2" d="M488.575,325.028l-1.024,0.775c-0.225,1.051-0.058,1.732,0.334,1.352
									C488.196,326.441,488.586,326.072,488.575,325.028z"/>
								<path fill="#DDC0A2" d="M490.251,333.859c-0.163-0.674-0.091-1.367-0.099-2.406l-0.518,3.838L490.251,333.859z"/>
								<path fill="#DDC0A2" d="M487.497,334.427c-0.225,1.055-1.693,2.897-0.519,2.798
									C487.201,336.179,488.218,335.407,487.497,334.427z"/>
								<polygon fill="#DDC0A2" points="474.397,327.94 474.634,327.917 475.308,321.602 								"/>
								<path fill="#DDC0A2" d="M460.785,341.775c0.912,1.62,0.645-3.874,1.418-1.888c0.402-1.468-0.633-1.62-0.246-2.885
									C461.153,338.513,460.905,337.589,460.785,341.775z"/>
								<path fill="#DDC0A2" d="M461.957,337.002c0.128-0.238,0.269-0.53,0.427-0.928
									C462.157,336.449,462.038,336.743,461.957,337.002z"/>
								<polygon fill="#DDC0A2" points="325.219,305.32 324.461,304.019 324.997,306.137 								"/>
								<path fill="#DDC0A2" d="M324.032,310.07l-0.317-4.039l-0.288,3.673C323.579,309.52,323.876,309.161,324.032,310.07z"/>
								<path fill="#DDC0A2" d="M418.677,343.416l0.109-0.97c-0.045-1.058-0.201-1.146-0.512-1.33L418.677,343.416z"/>
								<polygon fill="#DDC0A2" points="409.557,339.897 409.714,339.986 409.592,336.316 								"/>
								<path fill="#DDC0A2" d="M401.563,344.191c0.311,0.167,0.717-0.631,1.029-0.461
									C401.875,344.358,401.664,339.627,401.563,344.191z"/>
							</g>
						</g>
					</g>
				</g>
			</g>
			<path clip-path="url(#SVGID_31_)" fill="none" stroke="#D57346" stroke-width="10.8341" stroke-miterlimit="10" d="
				M306.743,333.544c69.503-5.093,139.816-2.901,210.51,6.564"/>
			<path clip-path="url(#SVGID_31_)" fill="none" stroke="#EB9F6D" stroke-width="9.9312" stroke-miterlimit="10" d="
				M313.462,286.841l31.254,3.734c33.004,3.943,66.562,3.943,99.566,0l31.254-3.734"/>
			<path opacity="0.3" clip-path="url(#SVGID_31_)" fill="none" stroke="#DDC0A2" stroke-width="9.9312" stroke-miterlimit="10" d="
				M475.535,248.952l-31.254-3.734c-33.004-3.943-66.562-3.943-99.566,0l-31.254,3.734"/>
			<path opacity="0.3" clip-path="url(#SVGID_31_)" fill="none" stroke="#DDC0A2" stroke-width="3.6114" stroke-miterlimit="10" d="
				M475.535,260.237l-31.254-3.734c-33.004-3.943-66.562-3.943-99.566,0l-31.254,3.734"/>
			<path clip-path="url(#SVGID_31_)" fill="none" stroke="#EB9F6D" stroke-width="1.8057" stroke-miterlimit="10" d="
				M475.535,239.37l-31.254-3.734c-33.004-3.943-66.562-3.943-99.566,0l-31.254,3.734"/>
			<path clip-path="url(#SVGID_31_)" fill="none" stroke="#EB9F6D" stroke-width="6.3199" stroke-miterlimit="10" d="
				M475.535,222.818l-31.254-3.734c-33.004-3.943-66.562-3.943-99.566,0l-31.254,3.734"/>
			<path clip-path="url(#SVGID_31_)" fill="none" stroke="#EB9F6D" stroke-width="1.8057" stroke-miterlimit="10" d="
				M313.462,276.043l31.254,3.734c33.004,3.943,66.562,3.943,99.566,0l31.254-3.734"/>
		</g>
		<circle fill="#464363" cx="374.985" cy="278.727" r="4.057"/>
		<circle fill="#464363" cx="416.916" cy="278.727" r="4.057"/>
		<circle fill="#FFFFFF" cx="372.709" cy="277.66" r="0.748"/>
		<circle fill="#FFFFFF" cx="414.639" cy="277.66" r="0.748"/>
		<path opacity="0.2" d="M395.951,333.596c35.651,0,64.551-28.901,64.551-64.551c0-18.998-8.209-36.078-21.271-47.891
			c10.354,11.449,16.66,26.628,16.66,43.28c0,35.651-33.597,68.495-69.247,68.495"/>
		<path fill="none" d="M460.502,269.045"/>
		<path fill="none" d="M331.4,269.045"/>
		
			<ellipse transform="matrix(0.0591 -0.9983 0.9983 0.0591 47.277 645.513)" fill="#EB9F6D" stroke="#F2D0B5" stroke-width="2.3492" stroke-miterlimit="10" cx="366.077" cy="297.676" rx="6.342" ry="13.184"/>
	</g>
	<path fill="none" stroke="#464363" stroke-width="2.7085" stroke-linecap="round" stroke-miterlimit="10" d="M412.23,308.353
		c0,0-4.469,2.446-16.279,2.446c-12.729,0-16.279-2.446-16.279-2.446"/>
</g>
<g>
	<g>
		<circle fill="#B9DEE1" cx="395.951" cy="463.359" r="37.017"/>
		<path opacity="0.12" d="M395.926,500.376c20.378,0,36.898-16.52,36.898-36.898c0-10.86-4.692-20.623-12.159-27.375
			c5.918,6.545,9.523,15.221,9.523,24.739c0,20.378-19.204,39.153-39.583,39.153"/>
		<path opacity="0.2" fill="#ECF3FA" d="M395.832,426.504c-20.378,0-36.898,16.52-36.898,36.898c0,10.86,4.692,20.623,12.159,27.375
			c-5.918-6.545-9.523-15.221-9.523-24.739c0-20.378,19.204-39.153,39.583-39.153"/>
	</g>
	<g>
		
			<line fill="none" stroke="#464363" stroke-width="1.3768" stroke-linecap="round" stroke-miterlimit="10" x1="383.04" y1="469.519" x2="388.385" y2="474.864"/>
		
			<line fill="none" stroke="#464363" stroke-width="1.3768" stroke-linecap="round" stroke-miterlimit="10" x1="388.385" y1="469.519" x2="383.04" y2="474.864"/>
		
			<line fill="none" stroke="#464363" stroke-width="1.3768" stroke-linecap="round" stroke-miterlimit="10" x1="403.516" y1="469.519" x2="408.861" y2="474.864"/>
		
			<line fill="none" stroke="#464363" stroke-width="1.3768" stroke-linecap="round" stroke-miterlimit="10" x1="408.861" y1="469.519" x2="403.516" y2="474.864"/>
	</g>
	<circle fill="#464363" cx="395.951" cy="486.382" r="3.242"/>
</g>
<text transform="matrix(1 0 0 1 132.1387 176.4416)" fill="#FFFFFF" font-family="'ArialMT'" font-size="23.801px">Mercury</text>
<text transform="matrix(1 0 0 1 362.207 176.4416)" fill="#FFFFFF" font-family="'ArialMT'" font-size="23.801px">Venus</text>
<text transform="matrix(1 0 0 1 588.0635 176.4416)" fill="#FFFFFF" font-family="'ArialMT'" font-size="23.801px">Earth</text>
<text transform="matrix(1 0 0 1 148.6704 369.5735)" fill="#FFFFFF" font-family="'ArialMT'" font-size="23.801px">Mars</text>
<text transform="matrix(1 0 0 1 360.2314 369.5735)" fill="#FFFFFF" font-family="'ArialMT'" font-size="23.801px">Jupiter</text>
<text transform="matrix(1 0 0 1 581.4443 369.5735)" fill="#FFFFFF" font-family="'ArialMT'" font-size="23.801px">Saturn</text>
<text transform="matrix(1 0 0 1 130.1226 549.3859)" fill="#FFFFFF" font-family="'ArialMT'" font-size="23.801px">Neptune</text>
<text transform="matrix(1 0 0 1 357.5874 549.3859)" fill="#FFFFFF" font-family="'ArialMT'" font-size="23.801px">Uranus</text>
<text transform="matrix(1 0 0 1 594.5498 549.3859)" fill="#FFFFFF" font-family="'ArialMT'" font-size="23.801px">Moon</text>
</svg>
